<?xml version="1.0" encoding="UTF-8" standalone="no"?>
<!-- Created with Inkscape (http://www.inkscape.org/) -->
<svg xmlns:inkscape="http://www.inkscape.org/namespaces/inkscape" xmlns:rdf="http://www.w3.org/1999/02/22-rdf-syntax-ns#" xmlns="http://www.w3.org/2000/svg" xmlns:xlink="http://www.w3.org/1999/xlink" xmlns:ns1="http://sozi.baierouge.fr" xmlns:cc="http://creativecommons.org/ns#" xmlns:sodipodi="http://sodipodi.sourceforge.net/DTD/sodipodi-0.dtd" xmlns:dc="http://purl.org/dc/elements/1.1/" id="svg2" xml:space="preserve" viewBox="0 0 55.168 46.999" version="1.1" inkscape:version="0.91 r13725">
  <g id="g10" transform="matrix(1.25 0 0 -1.25 0 46.999)">
    <g id="g12">
      <path id="path14" style="fill-rule:evenodd;fill:#6d7247" d="m35.535 32.599v-0.359c0.098 0.074 0.231 0.129 0.399 0.16v-0.242c-0.106-0.028-0.227-0.106-0.36-0.238 0.133-0.106 0.375-0.227 0.719-0.36 0.269-0.16 0.375-0.375 0.32-0.64-0.051-0.266-0.25-0.415-0.597-0.442-0.508 0-0.789-0.012-0.84-0.039 0.691-0.293 1.078-0.465 1.16-0.519v-0.083l-0.082-0.117c-0.481-0.082-0.785-0.066-0.918 0.039 0.078-0.16 0.094-0.441 0.039-0.839-0.824-0.106-1.309-0.04-1.441 0.199v-0.719c-0.344 0-0.598-0.016-0.758-0.039-0.082-0.508-0.426-0.828-1.039-0.961-0.11 0.105-0.16 0.199-0.16 0.277l-0.043-0.316c-0.043-0.024-0.098-0.039-0.161-0.043h0.161c-0.051-0.293-0.118-0.481-0.2-0.559-0.132-0.132-0.359-0.172-0.679-0.121-0.293 0.055-0.465 0.199-0.52 0.442-0.027 0.293-0.082 0.547-0.16 0.757-0.426-0.613-1.012-0.863-1.758-0.757-0.055 0.187-0.027 0.425 0.078 0.718 0.188 0.403 0.282 0.629 0.282 0.68-0.481-0.16-1.039-0.183-1.68-0.078-0.082 0.187-0.016 0.371 0.199 0.559 0.266 0.242 0.414 0.414 0.442 0.519 0.078 0.266-0.028 0.414-0.321 0.442-0.375-0.055-0.652-0.067-0.84-0.04-0.082 0.211-0.027 0.454 0.161 0.719 0.183 0.293 0.25 0.535 0.199 0.719h-0.641c-0.027 0.187 0.078 0.402 0.32 0.641 0.289 0.242 0.477 0.425 0.559 0.562h-0.199c-0.16 0.453 0.09 0.68 0.758 0.68-0.372 0.051-0.586 0.16-0.641 0.32-0.32 0.024-0.57-0.016-0.758-0.121 0.215 0.133 0.492 0.172 0.84 0.121 0.375-0.082 0.613-0.242 0.719-0.48v0.16l0.359-0.043c0-0.133-0.094-0.321-0.281-0.559-0.211-0.215-0.277-0.398-0.199-0.558 0.132-0.055 0.332-0.082 0.601-0.082-0.109-0.106-0.32-0.321-0.64-0.641-0.266-0.32-0.36-0.586-0.282-0.797 0.453-0.055 0.883 0.024 1.282 0.238 0.054-0.105 0.054-0.304 0-0.601-0.055-0.211 0.015-0.371 0.199-0.481 0.453-0.293 0.762-0.023 0.922 0.801 0.078-0.398 0.172-0.625 0.277-0.68 0.109-0.078 0.375-0.105 0.801-0.078v0.758c0.16-0.16 0.441-0.293 0.84-0.398 0.425-0.106 0.718-0.094 0.882 0.039 0.184 0.187 0.211 0.375 0.079 0.558-0.106 0.137-0.254 0.215-0.442 0.243 0.297 0 0.856 0.054 1.684 0.16 0.105 0.425-0.043 0.707-0.442 0.84-0.535 0.132-0.918 0.265-1.16 0.398 0.399 0.242 0.625 0.48 0.68 0.723 0.055 0.293-0.094 0.48-0.438 0.558-0.453 0.028-0.777 0.078-0.961 0.16 0.293 0.215 0.415 0.625 0.36 1.239-0.375-0.078-0.68-0.211-0.922-0.399 0.055 0.055 0.121 0.106 0.203 0.16 0.426 0.239 0.879 0.321 1.359 0.239v-0.957c0.641 0.05 1.161 0.05 1.559 0l-1-0.043c-0.426-0.051-0.68-0.106-0.758-0.161 0.133-0.132 0.449-0.183 0.957-0.16 0.481 0.028 0.801-0.05 0.961-0.238 0.133-0.16 0.199-0.414 0.199-0.762 0.11-0.023 0.36-0.05 0.762-0.078zm-0.601 1.281c0.054 0 0.093-0.015 0.121-0.043 0.238-0.132 0.386-0.425 0.437-0.878-0.078 0.453-0.265 0.761-0.558 0.921zm4.402-2.882c0.051-0.078 0.09-0.161 0.117-0.239 0.055-0.105 0.094-0.398 0.121-0.879-0.051 0.559-0.133 0.934-0.238 1.118zm-7.402-3.68 1.281 0.043 0.758 0.117-0.039-0.558c-0.239-0.055-0.532-0.055-0.879 0-0.375 0.078-0.653 0.214-0.84 0.398h-0.281zm6.8 0.961-0.16-0.758 0.082 0.477 0.078 0.281zm3.442-2.199-0.52 0.078h-0.203c0.137 0.027 0.375 0 0.723-0.078zm-5.281-4.121c-0.028-0.188-0.122-0.36-0.282-0.52 0.16 0.188 0.254 0.375 0.282 0.559v-0.039zm-1.2-1.719c-0.023-0.121-0.039-0.235-0.039-0.34v0.18c0 0.054 0.012 0.105 0.039 0.16zm1.321 3.359 0.039 0.16 0.082 0.282 0.117 0.32-0.238-0.762zm-8.84-4.48c0.078 0.027 0.172 0.039 0.277 0.039l0.883 0.16c-0.16-0.051-0.293-0.094-0.402-0.117-0.239-0.028-0.438-0.055-0.598-0.082h-0.16zm0.437 6.039c0.242-0.051 0.403-0.133 0.481-0.238-0.266-0.215-0.305-0.387-0.117-0.52 0.16-0.105 0.386-0.16 0.679-0.16 0.028-0.106 0-0.266-0.082-0.481-0.051-0.187-0.051-0.332 0-0.441 0.082-0.133 0.199-0.184 0.36-0.16 0.16 0.054 0.293 0.137 0.402 0.242 0-0.293 0.012-0.48 0.039-0.563 0.055-0.183 0.187-0.292 0.398-0.316 0.321-0.082 0.551 0.066 0.684 0.438 0.184 0.562 0.293 0.851 0.316 0.878 0.082-0.183 0.227-0.277 0.442-0.277 0.187 0.027 0.293 0.117 0.32 0.277 0.055 0.321 0.082 0.497 0.082 0.524 0 0.023 0.117 0.25 0.36 0.68 0.132 0.265 0.183 0.531 0.16 0.796l-0.684-0.398c0.215 0.215 0.203 0.375-0.039 0.481-0.105 0.027-0.199 0.039-0.281 0.039 0.082 0.027 0.226 0.039 0.441 0.039-0.238 0.027-0.375 0.148-0.398 0.363 0.398 0.078 1.023 0.133 1.879 0.16-0.239 0.293-0.172 0.465 0.199 0.52 0.215 0.027 0.508 0.039 0.883 0.039v0.359c0.133 0.027 0.343 0.039 0.636 0.039-0.293-0.266-0.41-0.492-0.359-0.68 0.027-0.132 0.148-0.253 0.359-0.359 0.243-0.133 0.375-0.238 0.403-0.32 0.187-0.375 0.148-0.653-0.121-0.84-0.106-0.106-0.254-0.172-0.438-0.199 0.051 0 0.106-0.016 0.156-0.039 0.055-0.348 0.055-0.696 0-1.043-0.238-0.106-0.41-0.024-0.519 0.242 0.055-0.293 0.055-0.602 0-0.922-0.426-0.023-0.703-0.023-0.84 0-0.266 0.055-0.465 0.227-0.598 0.519 0-0.023 0.012-0.316 0.039-0.878 0.028-0.426 0-0.664-0.082-0.719-0.078-0.082-0.199-0.094-0.359-0.039-0.105 0.051-0.199 0.133-0.277 0.238v-0.68c0-0.347-0.055-0.668-0.16-0.961-0.536-0.078-1.016 0.039-1.442 0.36 0.055-0.321-0.215-0.465-0.801-0.438-0.558 0.024-0.828 0.227-0.8 0.598v0.082c-0.161-0.105-0.465-0.133-0.918-0.082-0.055 0.348-0.039 0.641 0.039 0.883l0.039 0.078-0.321 0.121h-0.437v0.359l0.117 0.762-0.32 0.078 0.082 1.039-0.442 0.52c0.188 0.187 0.469 0.16 0.84-0.078v0.078zm0.84 0.519c-0.211 0.082-0.426 0.11-0.637 0.082 0.079 0.078 0.184 0.121 0.317 0.121 0.16-0.054 0.269-0.121 0.32-0.203zm-1.359 7.684c-0.028 0.691 0.429 1.144 1.359 1.359 1.016 0.211 1.469 0.024 1.363-0.562 0 0.187-0.082 0.336-0.242 0.441-0.215 0.16-0.508 0.215-0.879 0.16l0.121-0.359-0.562 0.238c-0.426-0.133-0.746-0.343-0.961-0.64l0.242-0.278h-0.359c-0.055-0.109-0.082-0.226-0.082-0.359zm-3.399-2.723c0.16 0.082 0.293 0.188 0.399 0.321 0.054 0.078 0.078 0.144 0.082 0.199-0.004-0.238-0.164-0.414-0.481-0.52zm0.321 0.883h0.078v-0.121l-0.078 0.121zm-1.282 0.316c0.293 0.348 0.399 0.657 0.321 0.922 0.078-0.214 0.05-0.414-0.082-0.601-0.078-0.133-0.227-0.332-0.438-0.598l0.199 0.277zm-1.8-0.917-0.36-0.243c0.188 0 0.399-0.078 0.641-0.238 0.238-0.16 0.398-0.254 0.48-0.281 0.348-0.481 0.453-0.879 0.321-1.199-0.11-0.239-0.336-0.387-0.68-0.438-0.402 0-0.695-0.016-0.883-0.043 0.027-0.105 0.106-0.371 0.242-0.801 0.078-0.398 0.067-0.664-0.043-0.797-0.32-0.269-0.89-0.175-1.718 0.278 0-0.106 0.015-0.293 0.039-0.559-0.028-0.215-0.133-0.332-0.321-0.359l-0.117 0.16c0-0.828-0.133-1.32-0.402-1.48-0.211-0.133-0.465-0.067-0.758 0.199-0.242 0.215-0.402 0.441-0.48 0.679 0.054-0.503 0.066-0.878 0.039-1.121-0.372-0.156-0.707-0.078-1 0.243-0.266 0.453-0.465 0.773-0.598 0.96-0.137-0.136-0.176-0.414-0.121-0.839 0.055-0.403 0-0.668-0.16-0.801-0.106-0.082-0.348-0.094-0.719-0.039-0.375 0.051-0.613 0.117-0.723 0.199-0.211 0.187-0.343 0.437-0.398 0.758-0.055-0.664-0.36-1.051-0.922-1.16-0.559-0.106-0.785 0.281-0.68 1.16-0.051-0.348-0.293-0.625-0.718-0.84-0.399-0.184-0.786-0.25-1.161-0.199-0.078 0.242-0.011 0.558 0.2 0.961 0.242 0.507 0.359 0.84 0.359 1-0.266-0.266-0.652-0.481-1.16-0.641-0.531-0.187-0.957-0.199-1.278-0.039 0.106 0.344 0.184 0.625 0.239 0.84 0.105 0.371 0.066 0.64-0.121 0.801-0.051 0.05-0.184 0.066-0.399 0.039-0.215-0.028-0.359-0.028-0.441 0 0 0.16 0.094 0.32 0.281 0.48-1.066-0.215-2.066-0.254-3-0.121 0.188 0.398 0.492 0.668 0.922 0.801-0.297-0.082-0.52-0.16-0.68-0.242-0.347-0.106-0.562-0.239-0.64-0.399l-0.481 0.321c-0.082-0.083-0.133-0.161-0.16-0.243 0.078 0.27 0.332 0.469 0.758 0.602 0.215 0.055 0.387 0.066 0.523 0.039-0.027 0.137-0.015 0.269 0.039 0.402 0.321 0.051 0.547 0 0.68-0.16 0.051-0.082 0.094-0.16 0.121-0.242v0.16c0.559 0.027 1.117 0.027 1.68 0-0.774 0.535-1.387 0.988-1.84 1.359-0.801 0.668-0.856 1.243-0.16 1.723 0.211-0.105 0.57-0.16 1.078-0.16 0.402 0 0.746-0.148 1.039-0.441 0.348 0.187 0.602 0.16 0.762-0.079 0.054-0.054 0.093-0.121 0.121-0.203 0.023 0.082 0.094 0.16 0.199 0.243 0.348-0.055 0.641-0.188 0.879-0.399 0.105-0.109 0.187-0.215 0.242-0.32-0.027 0.398-0.016 0.691 0.039 0.879 0.106-0.106 0.172-0.227 0.199-0.36 0 1.227 0.016 1.918 0.039 2.078 0.293 0.106 0.817 0.067 1.563-0.121 0.051 0.43 0.039 0.817-0.043 1.16-0.398-0.05-0.703 0.043-0.918 0.282-0.187 0.242-0.215 0.519-0.082 0.84 0.402 0.132 0.668 0.121 0.801-0.039-0.028 0.32 0.054 0.64 0.242 0.96 0.293 0.454 0.559 0.399 0.797-0.16v0.957c0.508 0.137 0.988 0.067 1.441-0.199 0.641-0.371 1.039-0.574 1.199-0.598-0.05 0.399 0.082 0.665 0.403 0.797 0.344 0.16 0.679 0.055 1-0.316-0.11 0.613-0.043 1.023 0.199 1.238 0.719-0.613 1.441-1.625 2.16-3.039l0.801 0.199c0 0.321 0.133 0.559 0.398 0.719 0.266 0.188 0.575 0.227 0.922 0.121 0.024-0.105 0.024-0.215 0-0.32 1.094 0.558 1.731 0.293 1.918-0.801 0.16-0.906-0.039-1.453-0.601-1.641h-0.078c0.16 0.11 0.308 0.27 0.441 0.481l-0.602-0.117 0.36 0.078-0.36 0.398v-0.476c-0.398-0.082-0.761-0.242-1.082-0.481-0.933-0.613-1.492-1.015-1.679-1.199l-0.278-0.32c0.321 0.16 0.801 0.238 1.438 0.238l0.64-0.039c-0.05-0.055-0.16-0.082-0.32-0.082l0.481-0.398zm-15.481-10.559c-0.613 0.051-0.879 0.266-0.797 0.637-0.242-0.321-0.629-0.426-1.16-0.321 0 0.055 0.145 0.254 0.438 0.602-0.293 0-0.532 0.016-0.719 0.039-0.348 0.055-0.453 0.203-0.32 0.441-0.375 0.051-0.696 0.106-0.961 0.161-0.454 0.105-0.493 0.281-0.118 0.519-0.457 0.055-0.734 0.133-0.843 0.238-0.106 0.11-0.172 0.215-0.2 0.321 0 0.136 0.094 0.203 0.282 0.203l-0.442 0.238h0.16c0.883-0.027 1.387-0.187 1.52-0.48-0.211 0.535-0.023 0.851 0.562 0.961 0.079 0.027 0.145 0.039 0.2 0.039 0.215 0.027 0.375 0.015 0.48-0.039 0.106 0.105 0.293 0.132 0.559 0.078l0.039 0.363h0.84c0.242 0 0.547-0.016 0.922-0.043h0.078c0.453 0.027 0.734 0.137 0.843 0.32h0.239c0.105-0.343 0.039-0.57-0.2-0.679 0.293 0.105 0.493 0.105 0.598 0 0.109-0.079 0.16-0.172 0.16-0.282v-0.238c0-1.199-0.16-1.641-0.48-1.32 0.137-0.293 0.148-0.641 0.043-1.039-0.188-0.028-0.348-0.133-0.481-0.321-0.215-0.214-0.425-0.347-0.64-0.398h-0.602zm9.961 2.199c-0.105 0.106-0.027 0.266 0.242 0.481 0.293 0.183 0.774 0.277 1.438 0.277-0.055-0.238-0.321-0.398-0.801-0.481-0.398-0.05-0.559-0.16-0.477-0.316l-0.402 0.039zm-0.48-0.199-0.039-0.121c0.027-0.293 0.253-0.375 0.679-0.242-0.773-0.477-0.867-0.786-0.281-0.918 0.59-0.16 0.988 0.039 1.203 0.597l0.039-0.597c0.399-0.133 0.707-0.082 0.918 0.16 0.109 0.105 0.242 0.387 0.402 0.84 0.106-0.321 0.293-0.442 0.559-0.36 0.133 0.024 0.215 0.106 0.242 0.239 0.028 0.16 0.039 0.293 0.039 0.402 0.399-0.215 0.692-0.188 0.879 0.078 0.16 0.215 0.215 0.547 0.16 1l-0.519 0.16c-0.293 0-0.508-0.012-0.641-0.039l-0.039-0.242-0.562 0.203c-0.024 0.211 0.093 0.344 0.363 0.399 0.023 0 0.266 0.027 0.719 0.078-0.055 0.32 0.148 0.574 0.601 0.761 0.637 0.239 0.973 0.371 1 0.399-0.347 0.054-0.523 0.187-0.523 0.402h0.242c0.586-0.133 0.852-0.293 0.801-0.48-0.055-0.028-0.121-0.067-0.203-0.121h0.043c-0.055-0.028-0.11-0.055-0.161-0.079 0.079-0.054 0.438-0.109 1.079-0.16 0.48-0.054 0.734-0.254 0.761-0.601 0.028-0.348-0.187-0.586-0.64-0.719-0.082 0-0.375-0.027-0.879-0.082 0.371 0 0.558-0.227 0.558-0.68 0-0.293-0.082-0.465-0.242-0.519h-0.597c0.187-0.508 0.105-0.801-0.243-0.879-0.504 0-0.89-0.028-1.16-0.082-0.051-0.184-0.094-0.492-0.117-0.918-0.055-0.293-0.293-0.387-0.723-0.281-0.371 0.105-0.586 0.336-0.636 0.679 0.023-0.426-0.176-0.691-0.602-0.801-0.426-0.078-0.668 0.094-0.719 0.524 0-0.563-0.175-0.867-0.523-0.922-0.426-0.051-0.703 0.066-0.84 0.359 0.109-0.425-0.051-0.679-0.477-0.757-0.429-0.055-0.628 0.132-0.601 0.558-0.16-0.347-0.266-0.558-0.32-0.64-0.188-0.239-0.387-0.254-0.602-0.039-0.16 0.132-0.199 0.347-0.117 0.64 0.105 0.32 0.172 0.531 0.199 0.641-0.215 0.078-0.375 0.105-0.48 0.078v0.199l-0.079-0.519-0.199 0.039 0.039 0.242 0.239 0.437c0 0.188 0.039 0.364 0.121 0.524l-0.082-0.481c0.109 0.078 0.254 0.117 0.441 0.117 0.242 0.028 0.426 0.067 0.559 0.122l0.043 0.878 0.359 0.043c-0.105 0.266 0.078 0.426 0.559 0.481zm8.722 5.758 0.199 0.121-0.48-0.32 0.281 0.199zm-3.16 5.718c0.238 0.188 0.332 0.403 0.277 0.641-0.16 0.055-0.277 0.067-0.359 0.043h-0.801c-0.48 0.024-0.863-0.109-1.16-0.402-0.293-0.321-0.172-0.492 0.363-0.52-0.589-0.054-0.91-0.187-0.961-0.398-0.054-0.242 0.051-0.387 0.321-0.442 0.211-0.054 0.426-0.054 0.64 0 0.293 0.078 0.637 0.321 1.039 0.719 0.321 0.16 0.532 0.281 0.641 0.359zm-4.082 0.122c0.375 0.214 0.469 0.496 0.281 0.839-0.265 0.508-0.933 0.469-2-0.121l-0.039 0.364c-0.453 0.05-0.801-0.137-1.043-0.563 0 0.055-0.011 0.109-0.039 0.16-0.078 0-0.199 0.055-0.359 0.16l-0.399 0.403c-0.535 0.023-0.789-0.11-0.761-0.403 0.027-0.293 0.265-0.386 0.718-0.277-0.132-0.055-0.226-0.148-0.277-0.281-0.082-0.242-0.121-0.375-0.121-0.403-0.055-0.105-0.16-0.226-0.32-0.359-0.082-0.105-0.094-0.254-0.039-0.437-0.293-0.137-0.496-0.336-0.602-0.602-0.133-0.266-0.055-0.508 0.242-0.719-0.75 0-1.226-0.133-1.441-0.402 0.133-0.184 0.508-0.277 1.121-0.277 0-0.055-0.016-0.297-0.043-0.723-0.051-0.344-0.023-0.574 0.082-0.68 0.238-0.265 0.547-0.304 0.918-0.117 0.32 0.156 0.496 0.383 0.523 0.68l-0.043-0.641c0-0.293 0.11-0.508 0.321-0.64 0.535-0.293 0.867-0.161 1 0.398 0.027 0.187 0.039 0.656 0.039 1.402 0.027-0.187 0.121-0.359 0.281-0.519 0.16-0.188 0.32-0.27 0.481-0.242 0.214 0.054 0.32 0.171 0.32 0.359v0.602c0.105 0 0.293-0.016 0.558-0.04 0.266 0 0.454 0.051 0.563 0.161 0.105 0.105 0.184 0.254 0.238 0.437 0.055 0.215 0.094 0.387 0.121 0.52l-0.402 0.281c0.375 0.293 0.574 0.625 0.602 1 0.027 0.348-0.133 0.574-0.481 0.68zm0.16-4.239c-0.16-0.054-0.215-0.265-0.16-0.64-0.586-0.028-0.984-0.067-1.199-0.121-0.348-0.106-0.481-0.414-0.399-0.918-0.457 0.371-0.683 0-0.683-1.121-0.477 0.292-0.918 0.546-1.317 0.757-0.75 0.375-1.109 0.227-1.082-0.437 0.293-0.082 0.95-0.242 1.961-0.481 0.879-0.16 1.438 0 1.68 0.481-0.105-0.32 0.078-0.442 0.559-0.36 0.347 0.051 0.601 0.372 0.761 0.957 0.106-0.183 0.321-0.292 0.641-0.316 0.078 0 0.348 0.024 0.797 0.078v0.879h0.922c0.32 0 0.507 0.176 0.558 0.52 0.055 0.242 0.055 0.468 0 0.679-0.051 0.243-0.183 0.348-0.398 0.321l-1.36 0.402c-0.453 0-0.722-0.039-0.8-0.121-0.133-0.133-0.172-0.332-0.121-0.602-0.106 0.11-0.227 0.121-0.36 0.043zm-3.16-11.121c-0.078 0-0.144 0.012-0.199 0.039-0.106 0.028-0.176 0.082-0.199 0.16-0.082 0.082-0.121 0.2-0.121 0.36v0.043c0 0.211 0.054 0.398 0.16 0.558-0.133 0-0.282 0.028-0.442 0.078 0.16-0.023 0.348-0.023 0.563 0-0.16-0.16-0.242-0.359-0.242-0.597-0.028-0.215 0.039-0.387 0.199-0.52 0.055-0.054 0.148-0.093 0.281-0.121zm0.68-1.078c-0.051 0.008-0.102 0.02-0.16 0.039-0.614 0.133-0.664 0.504-0.161 1.117l-0.039-0.078c-0.453-0.558-0.375-0.906 0.239-1.039 0.039-0.019 0.078-0.031 0.121-0.039zm10 7.637 0.16-0.438c-0.078 0.024-0.117 0.078-0.117 0.16l-0.043 0.278zm-3.278-7.238c-0.242 0.105-0.457 0.281-0.64 0.519l0.078-0.082c0.348-0.371 0.734-0.547 1.16-0.52-0.16-0.027-0.309-0.027-0.441 0-0.024 0.028-0.051 0.04-0.078 0.04-0.028 0.031-0.055 0.043-0.079 0.043zm-0.683 0.359c-0.106-0.32-0.36-0.559-0.758-0.719-0.117-0.039-0.223-0.066-0.32-0.082 0.05 0.012 0.101 0.024 0.16 0.043 0.375 0.106 0.652 0.316 0.84 0.641l0.078 0.117zm2.402 0.082c-0.082-0.082-0.16-0.149-0.242-0.203-0.055-0.028-0.109-0.055-0.156-0.078 0.125 0.078 0.258 0.172 0.398 0.281zm2.918 2c-0.078-0.027-0.16-0.055-0.238-0.082-0.188-0.027-0.36-0.012-0.52 0.039 0.239-0.051 0.493-0.039 0.758 0.043zm-18.238 10.039c-0.106 0.371-0.293 0.547-0.559 0.52l0.16-0.243c-0.16 0.215-0.375 0.309-0.64 0.282-0.321-0.028-0.403-0.188-0.242-0.481-0.399-0.105-0.653-0.226-0.758-0.359 0.105-0.188 0.453-0.282 1.039-0.282-0.055-0.078-0.082-0.199-0.082-0.359 0.16-0.078 0.429-0.039 0.801 0.121-0.051-0.187 0-0.32 0.16-0.398 0.133-0.082 0.293-0.082 0.48 0v0.32c0.188-0.187 0.508-0.254 0.961-0.203 0.106 0.453-0.015 0.68-0.359 0.68 0.16 0.082 0.277 0.121 0.359 0.121 0.106 0.347-0.015 0.519-0.359 0.519-0.426 0.055-0.746-0.027-0.961-0.238zm0.199-2.84c1.199 0.238 2.094 0.547 2.68 0.918-0.266 0.055-0.692-0.012-1.278-0.199-0.64-0.188-1.109-0.426-1.402-0.719zm-4-3.723l-0.238-0.117c0.211-0.16 0.707-0.199 1.48-0.121-0.64-0.187-0.894-0.414-0.761-0.679h0.761c0.028-0.106 0.028-0.266 0-0.481 0-0.187 0.051-0.305 0.16-0.359 0.344-0.133 0.598 0.078 0.758 0.64 0.082-0.32 0.309-0.425 0.68-0.32l0.121 0.961c0.133 0.211 0.187 0.426 0.16 0.637l-3.082-0.161h-0.039zm-2.68-4.117c0-0.16 0.082-0.308 0.239-0.441-0.453 0.348-0.332 0.707 0.363 1.082 0.453 0.238 0.973 0.426 1.559 0.559-1.387-0.426-2.106-0.829-2.161-1.2zm2.879-0.199v-0.043c-0.023-0.047-0.035-0.105-0.039-0.18 0.004 0.098 0.016 0.172 0.039 0.223zm6.723 0.797c0.051 0.293 0.117 0.496 0.199 0.602l-0.039-0.083c-0.055-0.105-0.109-0.277-0.16-0.519zm1.719-0.238c-0.215 0.132-0.305 0.265-0.282 0.398-0.078-0.051-0.16-0.094-0.238-0.117-0.265-0.109-0.535-0.149-0.801-0.121 0.266 0 0.536 0.055 0.801 0.16l0.32 0.16c-0.054-0.187 0.012-0.348 0.2-0.48z" inkscape:connector-curvature="0"/>
      <path id="path16" style="fill-rule:evenodd;fill:#585d3b" d="m36.336 32.4c-0.055-0.16-0.027-0.309 0.078-0.441 0-0.106 0.082-0.332 0.242-0.68 0.106-0.293 0.133-0.547 0.078-0.758-0.211-0.027-0.347-0.027-0.398 0v-0.601c-0.082 0.054-0.469 0.226-1.16 0.519 0.051 0.027 0.332 0.039 0.84 0.039 0.347 0.027 0.546 0.176 0.597 0.442 0.055 0.265-0.051 0.48-0.32 0.64-0.344 0.133-0.586 0.25-0.719 0.36 0.133 0.132 0.254 0.214 0.36 0.238v0.242h0.043c0.023 0.027 0.05 0.039 0.078 0.039 0.082 0 0.16-0.012 0.242-0.039h0.039zm-0.84 0.559 0.039-0.2v-0.16c-0.402 0.028-0.652 0.055-0.762 0.078 0 0.348-0.066 0.602-0.199 0.762-0.16 0.188-0.48 0.266-0.961 0.238-0.508-0.023-0.824 0.028-0.957 0.16 0.078 0.055 0.332 0.11 0.758 0.161l1 0.043h0.16c0.133-0.028 0.254-0.082 0.36-0.161 0.293-0.16 0.48-0.468 0.562-0.921zm-5.281-13.161-0.039 0.282c-0.082-0.133-0.188-0.243-0.321-0.321-0.187-0.105-0.347-0.121-0.48-0.039-0.082 0.051-0.121 0.321-0.121 0.801-0.293-0.16-0.547-0.203-0.758-0.121v0.32c-0.027 0.133-0.082 0.227-0.16 0.278-0.082-0.051-0.227-0.078-0.441-0.078 0.105 0.425 0.171 0.8 0.199 1.121v0.039c-0.028-0.028-0.039-0.067-0.039-0.121l-0.121-0.239v0.117l-0.118-0.039v0.481c-0.054 0.719-0.187 1.226-0.402 1.519v-0.64c-0.023-0.293-0.16-0.387-0.398-0.278-0.11 0.051-0.161 0.145-0.161 0.278 0.028 0.48 0.028 0.789 0 0.922-0.16-0.243-0.359-0.403-0.601-0.481l-0.399 0.52 0.321 0.761c-0.215-0.269-0.453-0.347-0.719-0.242-0.16 0.16-0.281 0.336-0.363 0.52 0.082 0.429 0.386 0.789 0.922 1.082-0.426-0.133-0.68-0.039-0.762 0.281-0.051 0.184 0.016 0.426 0.203 0.719 0.16 0.238 0.332 0.426 0.52 0.558-0.161-0.105-0.387-0.132-0.684-0.078-0.023 0.16-0.012 0.387 0.043 0.68 0.078 0.293 0.105 0.52 0.078 0.68-0.16 0.558-0.25 0.984-0.277 1.281v-0.481c-0.055-0.882-0.27-1.187-0.641-0.921 0.16-0.239 0.211-0.52 0.16-0.84l-0.281-0.199 0.48 0.32c0.161-0.403 0.227-0.762 0.2-1.082-0.055-0.399-0.282-0.571-0.68-0.52-0.027-0.183-0.082-0.426-0.16-0.718-0.055-0.243-0.188-0.399-0.399-0.481-0.214-0.051-0.523-0.039-0.921 0.039-0.426 0.109-0.707 0.227-0.84 0.359h-0.481c0.266-0.023 0.465-0.144 0.602-0.359 0.051-0.078 0.078-0.172 0.078-0.277-0.027-0.028-0.051-0.067-0.078-0.121 0.051 0.187-0.215 0.347-0.801 0.48h-0.242c0-0.215 0.176-0.348 0.523-0.402-0.027-0.028-0.363-0.16-1-0.399-0.453-0.187-0.656-0.441-0.601-0.761-0.453-0.051-0.696-0.078-0.719-0.078-0.27-0.055-0.387-0.188-0.363-0.399-0.399 0.106-0.692 0.106-0.879 0v-0.203c-0.664 0-1.145-0.094-1.438-0.277-0.269-0.215-0.347-0.375-0.242-0.481-0.238 0-0.398-0.066-0.48-0.199-0.481-0.055-0.664-0.215-0.559-0.481l-0.359-0.043-0.043-0.878c-0.133-0.055-0.317-0.094-0.559-0.122-0.187 0-0.332-0.039-0.441-0.117l0.082 0.481c-0.082-0.16-0.121-0.336-0.121-0.524l-0.239-0.437-0.039-0.242h-0.363c-0.105 0.402-0.039 0.695 0.203 0.882-0.375 0-0.574 0.118-0.601 0.36l0.078 0.039c0.187 0.082 0.336 0.266 0.441 0.558 0.106 0.028 0.309 0.043 0.602 0.043 0.238 0 0.437 0.024 0.597 0.079 0.375 0.16 0.657 0.507 0.84 1.039-0.105-0.106-0.25-0.133-0.437-0.078-0.188 0.027-0.321 0.105-0.403 0.238 0.082-0.504-0.304-0.664-1.16-0.481-0.023 0.082-0.039 0.149-0.039 0.203-0.133-0.613-0.664-0.867-1.598-0.761v0.48c-0.027 0.16-0.066 0.293-0.121 0.399-0.082-0.078-0.215-0.161-0.402-0.239-0.184-0.054-0.332-0.054-0.438 0-0.105 0.078-0.148 0.215-0.121 0.399 0.028 0.215 0.028 0.363 0 0.441-0.105 0.188-0.441 0.36-1 0.52-0.586 0.16-0.961 0.176-1.121 0.039l0.321-0.438 0.761-0.679c-0.054-0.215-0.066-0.586-0.039-1.121v-0.321c-0.347 0.078-0.601 0.078-0.761 0-0.161-0.078-0.239-0.144-0.239-0.199-0.027-0.055-0.043-0.176-0.043-0.359-0.023-0.188-0.066-0.414-0.117-0.68-0.027-0.16-0.148-0.297-0.363-0.402l-0.317-0.039c-0.109 0.105-0.203 0.171-0.281 0.199-0.16 0.027-0.347 0-0.562-0.078-0.211 0.05-0.383 0.16-0.52 0.32h0.602c0.215 0.051 0.425 0.184 0.64 0.398 0.133 0.188 0.293 0.293 0.481 0.321 0.105 0.398 0.094 0.746-0.043 1.039 0.32-0.321 0.48 0.121 0.48 1.32v0.238c0 0.11-0.051 0.203-0.16 0.282-0.105 0.105-0.305 0.105-0.598 0 0.239 0.105 0.305 0.336 0.2 0.679h-0.239c0.024 0.028 0.051 0.055 0.079 0.082 0.027 0.133-0.012 0.305-0.122 0.52l-0.437 0.039c0 0.453-0.281 0.68-0.84 0.68-0.027 0.375-0.016 0.64 0.039 0.8-0.64-0.027-1.121-0.027-1.441 0-0.559 0.051-0.824 0.293-0.801 0.719 0 0.055 0.016 0.109 0.043 0.16l0.039 0.039c0.027 0.082 0.078 0.16 0.16 0.243l0.481-0.321c0.078 0.16 0.293 0.293 0.64 0.399 0.16 0.082 0.383 0.16 0.68 0.242-0.43-0.133-0.734-0.403-0.922-0.801 0.934-0.133 1.934-0.094 3 0.121-0.187-0.16-0.281-0.32-0.281-0.48 0.082-0.028 0.226-0.028 0.441 0 0.215 0.027 0.348 0.011 0.399-0.039 0.187-0.161 0.226-0.43 0.121-0.801-0.055-0.215-0.133-0.496-0.239-0.84 0.321-0.16 0.747-0.148 1.278 0.039 0.508 0.16 0.894 0.375 1.16 0.641 0-0.16-0.117-0.493-0.359-1-0.211-0.403-0.278-0.719-0.2-0.961 0.375-0.051 0.762 0.015 1.161 0.199 0.425 0.215 0.667 0.496 0.718 0.84-0.105-0.879 0.121-1.266 0.68-1.16 0.562 0.109 0.867 0.496 0.922 1.16 0.055-0.321 0.187-0.571 0.398-0.758 0.11-0.082 0.348-0.148 0.723-0.199 0.371-0.055 0.613-0.043 0.719 0.039 0.16 0.133 0.215 0.398 0.16 0.801-0.055 0.425-0.016 0.703 0.121 0.839 0.133-0.187 0.332-0.507 0.598-0.96 0.293-0.321 0.628-0.399 1-0.243 0.027 0.243 0.015 0.618-0.039 1.121 0.078-0.238 0.238-0.464 0.48-0.679 0.293-0.266 0.547-0.332 0.758-0.199 0.269 0.16 0.402 0.652 0.402 1.48l0.121-0.16c0.184 0.027 0.293 0.148 0.317 0.359-0.024 0.266-0.039 0.453-0.039 0.559 0.828-0.453 1.402-0.547 1.722-0.278 0.106 0.133 0.117 0.399 0.039 0.797-0.133 0.43-0.215 0.696-0.242 0.801 0.188 0.027 0.481 0.043 0.883 0.043 0.348 0.051 0.57 0.199 0.68 0.438 0.132 0.32 0.027 0.718-0.321 1.199 0.106 0 0.227 0.054 0.36 0.16 0.078 0.109 0.238 0.574 0.48 1.402l0.039 0.117h0.16l-0.199-0.277c0.32-0.055 0.813-0.066 1.481-0.039l0.078-0.121v0.121h0.039c0.027-0.109 0.043-0.215 0.043-0.32v-0.043c-0.004-0.055-0.028-0.121-0.082-0.199-0.106-0.133-0.239-0.239-0.399-0.321h0.399c0.054 0.055 0.133 0.121 0.242 0.199 0.105 0.083 0.211 0.137 0.316 0.161 0.028 0.027 0.055 0.043 0.082 0.043h0.039c0 0.027 0.016 0.039 0.043 0.039l0.079 0.039c-0.055 0.187-0.04 0.386 0.039 0.601 0.082 0.133 0.187 0.239 0.32 0.321-0.082 0.027-0.133 0.16-0.16 0.398 0 0.426 0.066 0.695 0.199 0.801h0.043l0.199 0.16c0.188 0.105 0.438 0.145 0.758 0.121 0.055-0.16 0.269-0.269 0.641-0.32-0.664 0-0.918-0.227-0.758-0.68h0.199c-0.082-0.137-0.266-0.32-0.559-0.562-0.242-0.239-0.347-0.454-0.32-0.641h0.637c0.055-0.184-0.012-0.426-0.199-0.719-0.184-0.265-0.239-0.508-0.161-0.719 0.188-0.027 0.469-0.015 0.84 0.04 0.293-0.028 0.403-0.176 0.321-0.442-0.028-0.105-0.172-0.277-0.442-0.519-0.211-0.188-0.277-0.372-0.199-0.559 0.641-0.105 1.199-0.082 1.68 0.078 0-0.051-0.09-0.277-0.278-0.68-0.109-0.293-0.133-0.531-0.082-0.718 0.746-0.106 1.336 0.144 1.762 0.757 0.078-0.21 0.133-0.464 0.16-0.757 0.051-0.243 0.227-0.387 0.52-0.442 0.316-0.051 0.547-0.011 0.679 0.121 0.078 0.078 0.145 0.266 0.2 0.559h0.281c0.183-0.184 0.465-0.32 0.84-0.398 0.347-0.055 0.64-0.055 0.879 0l0.039 0.558 0.761 0.121h0.918c0.188 0.028 0.414 0.106 0.684 0.238l0.156 0.083 0.281 0.199 0.36 0.121c0.269 0.027 0.535 0.012 0.801-0.039 0.16-0.055 0.402-0.121 0.722-0.203l-0.082-0.477c0.399 0.133 0.801 0.156 1.199 0.078-0.023-0.054-0.023-0.187 0-0.398 0-0.16-0.039-0.297-0.117-0.403 0.399-0.054 0.973-0.066 1.719-0.039-0.027-0.132 0-0.332 0.078-0.601h0.203c0.051-0.481 0.012-0.84-0.121-1.078-0.933-0.188-1.426-0.082-1.48 0.32v-0.32c-0.215-0.055-0.426-0.055-0.641 0-0.051 0.238-0.012 0.531 0.121 0.879-0.133-0.321-0.441-0.438-0.922-0.36v0.481c-0.183-0.453-0.453-0.614-0.797-0.481-0.109 0.028-0.187 0.106-0.242 0.238l-0.039-1.316c-0.133-0.027-0.242-0.016-0.32 0.039-0.027 0.027-0.055 0.067-0.082 0.117v-0.636l-0.078-0.282-0.442 0.078 0.082-1.078-0.402-0.238-0.277-0.32c-0.723 0.051-1.188 0.066-1.403 0.039-0.023-0.375-0.117-0.653-0.277-0.84-0.215-0.215-0.481-0.215-0.801 0v-1.121l-1.039-0.039c-0.055-0.403-0.226-0.613-0.519-0.641-0.293-0.054-0.575 0.067-0.84 0.36 0.023-0.079 0.023-0.2 0-0.36-0.403-0.054-0.668-0.012-0.801 0.121v0.117l-0.121-0.039zm1.918 7.602-0.199-0.039 0.039 0.316c0-0.078 0.054-0.172 0.16-0.277zm0-1.441c-0.184 0-0.293-0.055-0.317-0.161-0.054-0.027-0.082-0.093-0.082-0.199-0.265 0.16-0.652 0.293-1.16 0.399-0.48 0.109-0.801 0.148-0.961 0.121 0-0.215 0.067-0.426 0.203-0.641-0.109 0.109-0.226 0.176-0.363 0.199-0.051 0.082-0.16 0.149-0.316 0.203-0.137 0-0.242-0.043-0.321-0.121-0.425 0-0.64-0.148-0.64-0.441 0.078-0.051 0.226-0.106 0.441-0.16v-0.078c-0.375 0.238-0.656 0.265-0.844 0.078l0.442-0.52-0.078-1.039 0.316-0.078-0.117-0.762v-0.359h0.437l0.321-0.121-0.039-0.078c-0.082-0.242-0.094-0.535-0.039-0.883 0.449-0.051 0.757-0.023 0.918 0.082v-0.082c-0.028-0.371 0.238-0.574 0.8-0.598 0.586-0.027 0.852 0.117 0.801 0.438 0.426-0.321 0.906-0.438 1.438-0.36 0.109 0.293 0.16 0.614 0.16 0.961v0.68c0.082-0.105 0.172-0.187 0.281-0.238 0.16-0.055 0.281-0.043 0.359 0.039 0.082 0.055 0.106 0.293 0.082 0.719-0.027 0.562-0.043 0.851-0.043 0.878 0.137-0.292 0.336-0.464 0.602-0.519 0.133-0.023 0.414-0.023 0.84 0 0.051 0.32 0.051 0.629 0 0.922 0.105-0.266 0.281-0.348 0.519-0.242 0.055 0.347 0.055 0.695 0 1.043-0.05 0.027-0.105 0.039-0.16 0.039 0.188 0.027 0.336 0.093 0.442 0.199 0.265 0.187 0.304 0.465 0.117 0.84-0.024 0.082-0.156 0.187-0.399 0.32-0.214 0.106-0.332 0.227-0.359 0.359-0.055 0.188 0.066 0.414 0.359 0.68-0.293 0-0.507-0.012-0.64-0.039v-0.359c-0.371 0-0.668-0.016-0.879-0.039-0.375-0.055-0.442-0.227-0.199-0.52-0.856-0.027-1.481-0.082-1.883-0.16 0.027-0.215 0.16-0.336 0.402-0.363-0.211 0-0.359-0.012-0.441-0.039zm-9.399 7.242v0.476l0.36-0.398-0.36-0.078zm-0.961-1.801 1.243-0.082c-0.293-0.023-0.653-0.16-1.082-0.398l-0.481 0.398c0.16 0 0.27 0.027 0.32 0.082zm0.243-6.441c0.691-0.106 1.293-0.239 1.8-0.399l0.157-0.082c0.429-0.266 0.55-0.574 0.363-0.918v-0.039c-0.109-0.187-0.27-0.254-0.481-0.203 0.133-0.133 0.211-0.332 0.239-0.598 0.027-0.242-0.028-0.441-0.16-0.601-0.106-0.16-0.239-0.254-0.399-0.282h-0.519c-0.028-0.476-0.067-0.769-0.121-0.878-0.106-0.266-0.333-0.372-0.68-0.321l-0.039-1.039c-0.453-0.105-0.922 0.012-1.403 0.36-0.027-0.161-0.027-0.387 0-0.68-0.027-0.266-0.132-0.442-0.32-0.52-0.265-0.105-0.519-0.015-0.758 0.282 0-0.161-0.015-0.387-0.039-0.68-0.082-0.242-0.254-0.375-0.523-0.402-0.426-0.028-0.692 0.187-0.797 0.64-0.27-0.691-0.629-1-1.082-0.922-0.399 0.082-0.52 0.297-0.359 0.645-0.586-0.402-0.989-0.508-1.2-0.32-0.105 0.078-0.16 0.199-0.16 0.359-0.027 0.211-0.039 0.332-0.039 0.359l-0.762-0.121 0.039 0.082c-0.132-0.054-0.253-0.082-0.359-0.082-0.133 0.028-0.226 0.067-0.281 0.121-0.16 0.133-0.227 0.305-0.199 0.52l0.16 0.359c0.082 0.133 0.105 0.254 0.082 0.36h-0.321l0.079 0.519v-0.199c0.105 0.027 0.265 0 0.48-0.078-0.027-0.106-0.094-0.321-0.199-0.641-0.082-0.293-0.039-0.508 0.121-0.64 0.211-0.215 0.414-0.2 0.598 0.039 0.054 0.082 0.16 0.296 0.32 0.64-0.027-0.426 0.176-0.613 0.601-0.558 0.426 0.078 0.586 0.332 0.481 0.757 0.133-0.293 0.414-0.41 0.84-0.359 0.344 0.055 0.519 0.359 0.519 0.922 0.051-0.43 0.293-0.602 0.719-0.52 0.426 0.106 0.625 0.371 0.602 0.797 0.05-0.343 0.265-0.57 0.64-0.679 0.426-0.106 0.664-0.012 0.719 0.281 0.027 0.426 0.066 0.734 0.121 0.922 0.266 0.05 0.652 0.078 1.16 0.078 0.344 0.082 0.426 0.375 0.239 0.879h0.601c0.16 0.054 0.238 0.226 0.238 0.519 0 0.457-0.183 0.684-0.558 0.684 0.508 0.051 0.801 0.078 0.879 0.078 0.453 0.133 0.668 0.375 0.64 0.719-0.027 0.347-0.281 0.547-0.757 0.601-0.641 0.055-1 0.106-1.083 0.16 0.051 0.024 0.106 0.051 0.161 0.079zm-13.602 2.601c0.293 0.293 0.762 0.531 1.402 0.719 0.586 0.187 1.012 0.254 1.278 0.199-0.586-0.371-1.481-0.68-2.68-0.918zm-1.961-7.199-0.398-0.281-0.082 0.16-0.118-0.242c-0.375-0.133-0.695-0.145-0.96-0.039-0.321 0.132-0.465 0.386-0.442 0.761-0.586-0.855-1.492-1.187-2.719-1 0.055 0.371 0.774 0.774 2.161 1.2l-0.602 0.039c0 0.242 0.055 0.425 0.16 0.562-0.344-0.187-0.68-0.242-1-0.16-0.344 0.078-0.531 0.293-0.558 0.637-0.536 0-0.989 0.066-1.36 0.203-0.508 0.211-0.652 0.504-0.441 0.879 0.16 0.238 0.574 0.359 1.242 0.359h0.277l0.442-0.238c-0.188 0-0.282-0.067-0.282-0.203 0.028-0.106 0.094-0.211 0.2-0.321 0.109-0.105 0.386-0.183 0.843-0.238-0.375-0.238-0.336-0.414 0.118-0.519 0.265-0.055 0.586-0.106 0.961-0.161-0.133-0.238-0.028-0.386 0.32-0.441 0.187-0.023 0.426-0.039 0.719-0.039-0.293-0.348-0.438-0.547-0.438-0.602 0.531-0.105 0.918 0 1.16 0.321-0.082-0.371 0.184-0.586 0.797-0.637z" inkscape:connector-curvature="0"/>
      <path id="path18" style="fill-rule:evenodd;fill:#848958" d="m30.816 34.158c-0.027-0.051-0.043-0.106-0.043-0.16 0.055 0.109 0.11 0.203 0.161 0.281 0.105 0.133 0.226 0.242 0.359 0.32 0.242 0.188 0.547 0.321 0.922 0.399 0.051-0.614-0.067-1.024-0.36-1.239 0.184-0.082 0.508-0.132 0.961-0.16 0.344-0.078 0.493-0.265 0.438-0.558-0.055-0.243-0.281-0.481-0.68-0.723 0.242-0.133 0.625-0.266 1.16-0.398 0.399-0.133 0.547-0.415 0.442-0.84-0.828-0.106-1.387-0.16-1.684-0.16 0.188-0.028 0.336-0.106 0.442-0.243 0.132-0.183 0.105-0.371-0.079-0.558-0.16-0.133-0.453-0.145-0.882-0.039-0.399 0.105-0.68 0.238-0.84 0.398v-0.758c-0.426-0.027-0.692 0-0.801 0.078-0.105 0.055-0.199 0.282-0.277 0.68-0.16-0.824-0.465-1.094-0.918-0.801-0.188 0.11-0.254 0.27-0.203 0.481 0.054 0.297 0.054 0.496 0 0.601-0.399-0.214-0.825-0.293-1.278-0.238-0.082 0.211 0.012 0.477 0.278 0.797 0.32 0.32 0.535 0.535 0.64 0.641-0.265 0-0.465 0.027-0.597 0.082-0.082 0.16-0.016 0.347 0.199 0.558 0.187 0.238 0.281 0.426 0.281 0.559l-0.363 0.043h-0.039c0 0.051 0.011 0.105 0.039 0.16 0 0.133 0.027 0.25 0.082 0.359h0.359l-0.242 0.278c0.215 0.297 0.535 0.507 0.961 0.64l0.562-0.238-0.121 0.359c0.371 0.051 0.668 0 0.879-0.16 0.16-0.105 0.242-0.254 0.242-0.441zm-2-8.399c0.211 0.028 0.426 0 0.637-0.082 0.137-0.023 0.254-0.09 0.363-0.199-0.136 0.215-0.203 0.426-0.203 0.641 0.16 0.027 0.481-0.012 0.961-0.121 0.508-0.106 0.895-0.239 1.16-0.399 0 0.106 0.028 0.172 0.082 0.199 0.024 0.106 0.133 0.161 0.317 0.161 0.082 0 0.176-0.012 0.281-0.039 0.242-0.106 0.254-0.266 0.039-0.481l0.684 0.398c0.023-0.265-0.028-0.531-0.16-0.796-0.243-0.43-0.36-0.653-0.36-0.68s-0.027-0.203-0.082-0.524c-0.027-0.16-0.133-0.25-0.32-0.277-0.215 0-0.36 0.094-0.442 0.277-0.023-0.023-0.132-0.316-0.316-0.878-0.133-0.372-0.363-0.52-0.684-0.438-0.211 0.024-0.343 0.133-0.398 0.316-0.027 0.083-0.039 0.27-0.039 0.563-0.109-0.105-0.242-0.188-0.402-0.242-0.161-0.028-0.278 0.027-0.36 0.16-0.051 0.109-0.051 0.254 0 0.441 0.082 0.215 0.11 0.371 0.082 0.481-0.293 0-0.519 0.055-0.679 0.16-0.188 0.133-0.149 0.305 0.117 0.52-0.078 0.105-0.239 0.187-0.481 0.238-0.211 0.054-0.359 0.109-0.437 0.16 0 0.293 0.211 0.441 0.64 0.441zm-12.882-3.398c0.082 0.133 0.242 0.199 0.48 0.199l0.402-0.039c-0.082 0.156 0.079 0.266 0.477 0.316 0.48 0.083 0.746 0.243 0.801 0.481v0.203c0.187 0.106 0.48 0.106 0.879 0l0.562-0.203 0.039 0.242c0.133 0.027 0.348 0.039 0.641 0.039l0.519-0.16c0.055-0.453 0-0.785-0.16-1-0.187-0.266-0.48-0.293-0.879-0.078 0-0.109-0.015-0.242-0.039-0.402-0.027-0.133-0.109-0.215-0.242-0.239-0.266-0.082-0.453 0.039-0.559 0.36-0.16-0.453-0.293-0.735-0.402-0.84-0.211-0.242-0.519-0.293-0.918-0.16l-0.039 0.597c-0.215-0.558-0.613-0.757-1.203-0.597-0.586 0.132-0.492 0.441 0.281 0.918-0.426-0.133-0.652-0.051-0.679 0.242l0.039 0.121zm5.562 11.476c-0.109-0.078-0.32-0.199-0.641-0.359-0.402-0.398-0.746-0.641-1.039-0.719-0.214-0.054-0.429-0.054-0.64 0-0.27 0.051-0.375 0.2-0.321 0.442 0.051 0.211 0.372 0.344 0.961 0.398-0.535 0.028-0.656 0.199-0.363 0.52 0.297 0.293 0.68 0.426 1.16 0.402h0.801c0.082 0.024 0.199 0.012 0.359-0.043 0.055-0.238-0.039-0.453-0.277-0.641zm-3.922-4.117c0.133 0.078 0.254 0.067 0.36-0.043-0.051 0.27-0.012 0.469 0.121 0.602 0.078 0.082 0.347 0.121 0.8 0.121l1.36-0.402c0.215 0.027 0.347-0.078 0.398-0.321 0.055-0.211 0.055-0.437 0-0.679-0.051-0.344-0.238-0.52-0.558-0.52h-0.922v-0.879c-0.449-0.054-0.719-0.078-0.797-0.078-0.32 0.024-0.535 0.133-0.641 0.316-0.16-0.585-0.414-0.906-0.761-0.957-0.481-0.082-0.664 0.04-0.559 0.36-0.242-0.481-0.801-0.641-1.68-0.481-1.015 0.239-1.668 0.399-1.961 0.481-0.027 0.664 0.332 0.812 1.082 0.437 0.399-0.211 0.84-0.465 1.317-0.757 0 1.121 0.226 1.492 0.683 1.121-0.082 0.504 0.051 0.812 0.399 0.918 0.215 0.054 0.613 0.093 1.199 0.121-0.055 0.375 0 0.586 0.16 0.64zm-0.16 4.239c0.348-0.106 0.508-0.332 0.481-0.68-0.028-0.375-0.227-0.707-0.602-1l0.402-0.281c-0.027-0.133-0.066-0.305-0.121-0.52-0.054-0.183-0.133-0.332-0.238-0.437-0.109-0.11-0.297-0.161-0.563-0.161-0.265 0.024-0.453 0.04-0.558 0.04v-0.602c0-0.184-0.106-0.305-0.32-0.359-0.161-0.028-0.321 0.054-0.481 0.242-0.16 0.16-0.254 0.332-0.281 0.519 0-0.746-0.012-1.215-0.039-1.402-0.133-0.559-0.465-0.691-1-0.398-0.211 0.132-0.321 0.347-0.321 0.64l0.043 0.641c-0.027-0.297-0.203-0.524-0.523-0.68-0.371-0.187-0.68-0.148-0.918 0.117-0.105 0.106-0.133 0.336-0.082 0.68 0.027 0.426 0.043 0.668 0.043 0.723-0.613 0-0.988 0.093-1.121 0.277 0.215 0.269 0.691 0.402 1.441 0.402-0.297 0.211-0.375 0.453-0.242 0.719 0.106 0.266 0.309 0.465 0.602 0.602-0.055 0.183-0.043 0.332 0.039 0.437 0.16 0.133 0.265 0.254 0.32 0.359 0 0.028 0.039 0.161 0.121 0.403 0.051 0.133 0.145 0.226 0.277 0.281-0.453-0.109-0.691-0.016-0.718 0.277-0.028 0.293 0.226 0.426 0.761 0.403l0.399-0.403c0.16-0.105 0.281-0.16 0.359-0.16 0.028-0.051 0.039-0.105 0.039-0.16 0.242 0.426 0.586 0.613 1.043 0.563l0.039-0.364c1.067 0.59 1.735 0.629 2 0.121 0.188-0.343 0.094-0.625-0.281-0.839zm-9.199-3.559c0.215 0.211 0.535 0.293 0.961 0.238 0.344 0 0.465-0.172 0.359-0.519-0.082 0-0.199-0.039-0.359-0.121 0.344 0 0.465-0.227 0.359-0.68-0.453-0.051-0.773 0.016-0.961 0.203v-0.32c-0.187-0.082-0.347-0.082-0.48 0-0.16 0.078-0.211 0.211-0.16 0.398-0.372-0.16-0.641-0.199-0.801-0.121 0 0.16 0.027 0.281 0.082 0.359-0.586 0-0.934 0.094-1.039 0.282 0.105 0.133 0.359 0.254 0.758 0.359-0.161 0.293-0.079 0.453 0.242 0.481 0.265 0.027 0.48-0.067 0.64-0.282l-0.16 0.243c0.266 0.027 0.453-0.149 0.559-0.52zm-3.801-6.563h0.039l3.082 0.161c0.027-0.211-0.027-0.426-0.16-0.637l-0.121-0.961c-0.371-0.105-0.598 0-0.68 0.32-0.16-0.562-0.414-0.773-0.758-0.64-0.109 0.05-0.16 0.172-0.16 0.359 0.028 0.215 0.028 0.375 0 0.481h-0.761c-0.133 0.265 0.121 0.492 0.761 0.679-0.773-0.078-1.269-0.039-1.48 0.121l0.238 0.117z" inkscape:connector-curvature="0"/>
      <path id="path20" style="fill-rule:evenodd;fill:#4e512f" d="m31.934 27.361 0.199 0.039c0.617 0.133 0.961 0.453 1.043 0.961 0.16 0.023 0.414 0.039 0.758 0.039v0.719c0.132-0.239 0.613-0.305 1.441-0.199 0.051 0.398 0.039 0.679-0.039 0.839 0.133-0.105 0.437-0.121 0.918-0.039-0.027-0.082-0.027-0.281 0-0.601 0-0.266-0.055-0.453-0.16-0.559 1.066 0 1.695-0.015 1.879-0.039 0.054 0 0.308-0.082 0.761-0.242l-0.078-0.281c-0.32 0.082-0.562 0.148-0.722 0.203-0.266 0.051-0.532 0.066-0.797 0.039l-0.364-0.121-0.277-0.199-0.16-0.083c-0.27-0.132-0.496-0.21-0.684-0.238h-0.918l-0.761-0.121-0.758-0.117-1.281-0.043h-0.161c0.063 0.004 0.118 0.019 0.161 0.043zm7.32 3.719c0-0.16 0.016-0.403 0.039-0.719-0.105-0.375-0.531-0.508-1.277-0.402-0.188 0.027-0.309 0.054-0.36 0.082-0.109 0.05-0.187 0.144-0.242 0.277 0.082-0.32-0.027-0.531-0.32-0.641-0.266-0.078-0.52-0.023-0.758 0.16v0.684c0.051-0.027 0.184-0.027 0.398 0 0.055 0.211 0.028 0.465-0.082 0.758-0.16 0.348-0.238 0.574-0.238 0.68-0.109 0.132-0.133 0.281-0.082 0.441h0.082c0.051 0 0.106-0.016 0.16-0.039 0-0.055 0.012-0.176 0.039-0.363 0.028-0.078 0.028-0.161 0-0.239 0.133 0.321 0.403 0.371 0.801 0.161 0.375-0.215 0.559-0.481 0.559-0.801 0.082 0.187 0.308 0.254 0.679 0.199 0.16 0 0.297-0.023 0.403-0.078 0.078-0.055 0.144-0.106 0.199-0.16zm2.922-5v-0.403c0-0.132-0.055-0.265-0.16-0.398 0.507 0.055 0.757-0.133 0.757-0.559v-0.121c-0.078-0.027-0.132-0.121-0.16-0.281-0.051-0.211-0.144-0.371-0.277-0.481-0.188-0.16-0.481-0.226-0.883-0.199-0.426 0.028-0.625 0.188-0.598 0.481-0.214-0.16-0.48-0.215-0.8-0.16-0.188 0.054-0.321 0.132-0.403 0.242-0.105 0.16-0.199 0.265-0.277 0.32-0.055 0.024-0.281 0.024-0.684 0-0.316-0.055-0.519 0.024-0.597 0.238 0.027-0.238-0.055-0.414-0.242-0.519-0.211-0.082-0.414-0.039-0.598 0.121l-0.121-0.32v0.636c0.027-0.05 0.055-0.09 0.082-0.117 0.078-0.055 0.183-0.066 0.32-0.039l0.039 1.316c0.051-0.132 0.133-0.21 0.238-0.238 0.348-0.133 0.614 0.028 0.801 0.481v-0.481c0.481-0.078 0.785 0.039 0.922 0.36-0.137-0.348-0.176-0.641-0.121-0.879 0.215-0.055 0.426-0.055 0.641 0v0.32c0.05-0.402 0.547-0.508 1.48-0.32 0.133 0.238 0.172 0.597 0.117 1.078l0.524-0.078zm-5.121-2.321-0.039-0.16c-0.028-0.105-0.028-0.293 0-0.558-0.082-0.137-0.188-0.227-0.321-0.282l-0.082 1.078 0.442-0.078zm-6.719-4.039c0.133-0.133 0.398-0.175 0.797-0.121 0.027 0.16 0.027 0.281 0 0.36 0.269-0.293 0.547-0.414 0.84-0.36 0.293 0.028 0.468 0.238 0.519 0.641l1.043 0.039v1.121c0.32-0.215 0.586-0.215 0.801 0 0.156 0.187 0.25 0.465 0.277 0.84 0.215 0.027 0.68 0.012 1.403-0.039l-0.2-0.242c-0.109-0.055-0.293-0.094-0.562-0.122-0.215-0.183-0.371-0.542-0.481-1.078h-0.039c-0.027-0.238-0.027-0.613 0-1.121-0.398-0.133-0.785-0.105-1.16 0.082 0.028-0.425-0.281-0.64-0.918-0.64-0.59 0-0.988 0.121-1.203 0.359-0.051-0.133-0.183-0.227-0.398-0.281-0.215-0.051-0.387-0.039-0.52 0.043-0.16 0.133-0.226 0.304-0.199 0.519zm-1.883-0.562c-0.105 0-0.199-0.012-0.277-0.039-0.11 0.027-0.203 0.039-0.281 0.039-0.215 0.054-0.36 0.148-0.442 0.281l0.039 0.082v0.078l0.403 1.321c0.21 0 0.359 0.027 0.441 0.078 0.078-0.051 0.133-0.145 0.156-0.278v-0.32c0.215-0.082 0.469-0.039 0.762 0.121 0-0.48 0.039-0.75 0.121-0.801 0.133-0.082 0.293-0.066 0.48 0.039 0.133 0.078 0.239 0.188 0.317 0.321l0.043-0.282-1.762-0.597v-0.043zm-6.519 11.762c0.425 0.238 0.789 0.375 1.082 0.398l-1.243 0.082-0.64 0.039c-0.637 0-1.117-0.078-1.438-0.238l0.278 0.32c0.187 0.184 0.75 0.586 1.683 1.199 0.317 0.239 0.68 0.399 1.078 0.481l0.602 0.117c-0.137-0.211-0.281-0.371-0.441-0.481-0.028-0.023-0.055-0.039-0.079-0.039h-0.121c-0.668-0.16-1.16-0.293-1.48-0.398 0.238 0 0.64-0.105 1.199-0.32 0.508-0.188 0.891-0.266 1.16-0.243l-0.039-0.117c-0.242-0.828-0.402-1.293-0.48-1.402-0.133-0.106-0.254-0.16-0.36-0.16-0.082 0.027-0.242 0.121-0.48 0.281-0.242 0.16-0.453 0.238-0.641 0.238l0.36 0.243zm-15.879-10.84 0.398 0.281c0.137-0.16 0.309-0.27 0.52-0.32-0.399-0.215-0.703-0.204-0.918 0.039zm1.761-0.16 0.317 0.039c0.215 0.105 0.336 0.242 0.363 0.402 0.051 0.266 0.094 0.492 0.117 0.68 0 0.183 0.016 0.304 0.043 0.359 0 0.055 0.078 0.121 0.239 0.199 0.16 0.078 0.414 0.078 0.761 0-0.027-0.187-0.094-0.32-0.203-0.398-0.078-0.055-0.265-0.11-0.558-0.16-0.055-0.641-0.227-1.028-0.52-1.161-0.187-0.054-0.336-0.066-0.441-0.043l-0.118 0.083zm1.879 3.121-0.761 0.679-0.321 0.438c0.16 0.137 0.535 0.121 1.121-0.039 0.559-0.16 0.895-0.332 1-0.52 0.028-0.078 0.028-0.226 0-0.441-0.027-0.184 0.016-0.321 0.121-0.399 0.106-0.054 0.254-0.054 0.438 0 0.187 0.078 0.32 0.161 0.402 0.239 0.051-0.106 0.094-0.239 0.121-0.399v-0.48c0.934-0.106 1.465 0.148 1.598 0.761 0-0.054 0.016-0.121 0.039-0.203 0.856-0.183 1.242-0.023 1.16 0.481 0.082-0.133 0.215-0.211 0.403-0.238 0.183-0.055 0.332-0.028 0.437 0.078-0.183-0.532-0.465-0.879-0.84-1.039-0.16-0.055-0.359-0.079-0.597-0.079-0.293 0-0.496-0.015-0.602-0.043l0.121 0.243c-0.242-0.106-0.601-0.133-1.082-0.082l-0.519-0.039c-0.184 0.242-0.332 0.386-0.438 0.441-0.137 0.078-0.32 0.078-0.562 0-0.239-0.055-0.399-0.055-0.481 0-0.133 0.078-0.226 0.254-0.277 0.52l0.558-0.282-0.519 1.199-0.039-0.917-0.481 0.238v-0.117zm-3.84-3.043c-0.293-0.532-0.707-0.703-1.242-0.52v0.043c-0.265 0.078-0.453 0.277-0.558 0.598-0.133-0.028-0.266-0.094-0.399-0.199-0.16-0.188-0.254-0.293-0.281-0.321-0.133-0.133-0.453-0.293-0.961-0.48-0.187 0.027-0.332 0.082-0.441 0.16-0.157 0.133-0.239 0.281-0.239 0.441 1.227-0.187 2.133 0.145 2.719 1-0.023-0.375 0.121-0.629 0.442-0.761 0.265-0.106 0.585-0.094 0.96 0.039zm7.801 0 0.199-0.039h0.321c0.023-0.106 0-0.227-0.082-0.36l-0.16-0.359c0 0.238 0.082 0.437 0.242 0.597-0.215-0.023-0.403-0.023-0.563 0h-0.078c-0.105 0.028-0.215 0.067-0.32 0.122-0.055 0.027-0.106 0.066-0.16 0.121-0.188 0.132-0.254 0.293-0.2 0.48l-0.32-0.16c-0.586 0.055-0.933 0.199-1.039 0.437l0.039 0.083h-0.082l-0.078 0.441c0.105-0.16 0.332-0.242 0.68-0.242 0.32 0 0.601 0.039 0.84 0.121 0.027-0.242 0.226-0.36 0.601-0.36-0.242-0.187-0.308-0.48-0.203-0.882h0.363zm1.438-2.477c-0.043 0.008-0.082 0.02-0.121 0.039-0.614 0.133-0.692 0.481-0.239 1.039l0.762 0.121c0-0.027 0.012-0.148 0.039-0.359 0-0.16 0.055-0.281 0.16-0.363 0.211-0.184 0.614-0.078 1.2 0.32-0.161-0.348-0.04-0.559 0.359-0.641 0.453-0.078 0.812 0.227 1.082 0.922 0.105-0.453 0.371-0.668 0.797-0.64 0.269 0.027 0.441 0.16 0.523 0.398 0.028 0.297 0.039 0.52 0.039 0.68 0.239-0.293 0.493-0.383 0.758-0.278 0.188 0.078 0.297 0.25 0.32 0.52-0.027 0.293-0.027 0.519 0 0.68 0.481-0.348 0.95-0.465 1.403-0.36l0.039 1.039c0.347-0.051 0.574 0.055 0.68 0.321 0.054 0.105 0.093 0.398 0.121 0.878h0.519c0.16 0.028 0.293 0.122 0.399 0.282 0.132 0.16 0.187 0.359 0.16 0.601-0.028 0.266-0.106 0.465-0.239 0.598 0.211-0.051 0.372 0.016 0.481 0.199v0.043c0.184 0.344 0.066 0.652-0.363 0.918l-0.157 0.082c-0.507 0.16-1.109 0.293-1.8 0.399h-0.043c0.082 0.05 0.148 0.093 0.203 0.121 0.023 0.05 0.051 0.093 0.078 0.117 0 0.109-0.027 0.203-0.078 0.281-0.137 0.215-0.336 0.332-0.602 0.359h0.481c0.133-0.132 0.414-0.25 0.84-0.359 0.398-0.078 0.707-0.094 0.921-0.039 0.211 0.078 0.344 0.238 0.399 0.481 0.078 0.292 0.133 0.531 0.16 0.718 0.398-0.051 0.625 0.121 0.68 0.52 0.027 0.32-0.039 0.679-0.2 1.082l-0.199-0.121c0.051 0.32 0 0.601-0.16 0.84 0.371-0.266 0.586 0.039 0.641 0.918v0.48c0.023-0.293 0.117-0.719 0.277-1.277 0.027-0.16 0-0.387-0.078-0.68-0.055-0.297-0.066-0.523-0.043-0.68 0.297-0.054 0.523-0.027 0.684 0.078-0.188-0.132-0.36-0.32-0.52-0.558-0.187-0.297-0.254-0.535-0.203-0.723 0.082-0.32 0.336-0.414 0.762-0.277-0.536-0.297-0.84-0.653-0.922-1.082l0.039-0.278c0-0.082 0.043-0.136 0.121-0.16 0.266-0.8 0.359-1.402 0.281-1.8-0.16-0.028-0.281-0.04-0.359-0.04-0.16 0-0.27 0.024-0.321 0.079 0.106-0.504 0.106-0.879 0-1.122-0.054-0.132-0.121-0.226-0.199-0.277h-0.441c-0.027-0.215-0.039-0.562-0.039-1.039-0.453-0.082-0.723 0-0.801 0.238 0.078-0.695 0.094-1.105 0.039-1.238-0.078-0.215-0.226-0.309-0.441-0.281-0.293 0.027-0.493 0.012-0.598-0.039-0.133-0.082-0.215-0.188-0.242-0.321 0-0.136-0.039-0.242-0.117-0.32-0.133-0.133-0.387-0.199-0.762-0.199l-0.078 0.078v-0.078h-0.16l0.039-0.203c-0.188-0.321-0.465-0.531-0.84-0.637-0.059-0.019-0.113-0.031-0.16-0.043-0.121-0.016-0.227-0.016-0.321 0-0.078 0.027-0.16 0.067-0.238 0.121-0.109 0.051-0.203 0.133-0.281 0.238-0.215-0.347-0.535-0.585-0.961-0.718s-0.879-0.149-1.359-0.039c0.054 0.16 0.011 0.32-0.122 0.48-0.425-0.027-0.785-0.055-1.078-0.082l-0.402 0.043h-0.199zm10.761 6.598-0.402 0.519c0.27-0.105 0.508-0.027 0.723 0.242l-0.321-0.761zm2.079-2.399c-0.051-0.054-0.094-0.121-0.118-0.199-0.16-0.242-0.363-0.469-0.601-0.684l-0.039-0.039c-0.055-0.054-0.121-0.105-0.203-0.16-0.184-0.133-0.36-0.226-0.52-0.277v0.078c-0.023 0.32-0.105 0.574-0.238 0.762-0.215 0.238-0.399 0.453-0.559 0.636 0.317 0.243 0.532 0.43 0.637 0.563 0.215 0.211 0.281 0.48 0.203 0.801l-0.242 0.398c0.242 0.078 0.441 0.238 0.601 0.481 0.028-0.133 0.028-0.442 0-0.922 0-0.133 0.051-0.227 0.161-0.278 0.238-0.109 0.371-0.015 0.398 0.278v0.64c0.215-0.293 0.348-0.8 0.402-1.519v-0.481l0.118 0.039v-0.117z" inkscape:connector-curvature="0"/>
      <path id="path22" style="fill-rule:evenodd;fill:#414428" d="m36.336 29.837c0.238-0.183 0.492-0.238 0.758-0.16 0.293 0.11 0.398 0.321 0.32 0.641 0.051-0.133 0.133-0.227 0.238-0.277 0.055-0.028 0.176-0.055 0.364-0.082 0.746-0.106 1.172 0.027 1.277 0.402-0.027 0.316-0.039 0.559-0.039 0.719 0.027-0.028 0.051-0.055 0.082-0.082 0.105-0.184 0.184-0.559 0.238-1.118 0-0.453-0.027-0.75-0.082-0.882-0.105-0.321-0.344-0.493-0.719-0.52l-0.039-0.199c-0.453 0.16-0.707 0.242-0.761 0.242-0.184 0.024-0.813 0.039-1.879 0.039 0.105 0.106 0.16 0.293 0.16 0.559-0.027 0.32-0.027 0.519 0 0.601l0.082 0.117zm6.437-5.238v-0.398c0.719 0 1.176-0.16 1.36-0.481-0.504-0.586-1.317-0.789-2.438-0.601l-0.043 0.32c-0.613-0.348-1.16-0.453-1.636-0.32-0.293 0.082-0.723 0.336-1.282 0.761 0-0.507-0.121-0.976-0.359-1.402-0.293-0.558-0.723-0.867-1.281-0.918l-0.16 0.277v0.043c-0.028 0.024-0.039 0.051-0.039 0.079v0.039c-0.028-0.184-0.122-0.371-0.282-0.559l-0.078-0.078c-0.137-0.137-0.32-0.309-0.562-0.524-0.161-0.238-0.25-0.437-0.282-0.597-0.023-0.055-0.039-0.106-0.039-0.16v-0.2c-0.027-0.136-0.039-0.242-0.039-0.32l-0.039-0.039c-0.16-0.535-0.508-0.922-1.043-1.16-0.504-0.242-1.133-0.297-1.879-0.16-0.293 0-0.492 0.011-0.601 0.039-0.133 0.027-0.227 0.121-0.278 0.281-0.961-0.187-1.839-0.242-2.64-0.16-0.028 0.293 0.039 0.613 0.199 0.957l-0.879-0.16v0.043l1.758 0.597 0.121 0.039v-0.117c-0.027-0.215 0.039-0.386 0.199-0.519 0.133-0.082 0.305-0.094 0.52-0.043 0.215 0.054 0.347 0.148 0.398 0.281 0.215-0.238 0.613-0.359 1.203-0.359 0.637 0 0.946 0.215 0.918 0.64 0.375-0.187 0.762-0.215 1.16-0.082-0.027 0.508-0.027 0.883 0 1.121h0.04c0.105 0.536 0.265 0.895 0.48 1.078 0.27 0.028 0.453 0.067 0.559 0.122l0.203 0.242 0.277 0.32 0.402 0.238c0.133 0.051 0.239 0.145 0.321 0.282-0.028 0.265-0.028 0.453 0 0.558l0.238 0.762c0.188-0.16 0.387-0.203 0.602-0.121 0.183 0.105 0.265 0.281 0.238 0.519 0.082-0.214 0.281-0.293 0.601-0.238 0.399 0.024 0.625 0.024 0.68 0 0.082-0.055 0.176-0.16 0.281-0.32 0.078-0.11 0.211-0.188 0.399-0.242 0.32-0.055 0.586 0 0.801 0.16-0.028-0.293 0.171-0.453 0.601-0.481 0.399-0.027 0.692 0.039 0.879 0.199 0.133 0.11 0.227 0.27 0.281 0.481 0.028 0.16 0.082 0.254 0.16 0.281zm-18.718 8.16c0.082-0.265-0.028-0.574-0.321-0.922h-0.16c-0.265-0.023-0.652 0.055-1.16 0.243-0.559 0.215-0.961 0.32-1.199 0.32 0.32 0.105 0.812 0.238 1.48 0.398h0.121c0.024 0 0.051 0.016 0.079 0.039h0.078l0.523-0.039h0.52l0.039-0.039zm-17.082-12.718c0.215 0.078 0.402 0.105 0.562 0.078 0.078-0.028 0.172-0.094 0.281-0.199l0.118-0.083c0.105-0.023 0.254-0.011 0.441 0.043 0.293 0.133 0.465 0.52 0.52 1.161 0.293 0.05 0.48 0.105 0.558 0.16 0.109 0.078 0.176 0.211 0.203 0.398v0.321c-0.027 0.535-0.015 0.906 0.039 1.121v0.117l0.481-0.238 0.039 0.917 0.519-1.199-0.558 0.282c0.051-0.266 0.144-0.442 0.277-0.52 0.082-0.055 0.242-0.055 0.481 0 0.242 0.078 0.425 0.078 0.562 0 0.106-0.055 0.25-0.199 0.438-0.441l0.519 0.039c0.481-0.051 0.84-0.024 1.082 0.082l-0.121-0.243c-0.105-0.292-0.254-0.476-0.441-0.558l-0.078-0.039c-0.239-0.082-0.52-0.121-0.84-0.121-0.348 0-0.575 0.082-0.68 0.242l0.078-0.441c-0.265 0.027-0.492 0.011-0.68-0.04h-0.039c-0.187-0.027-0.347-0.093-0.48-0.203-0.051-0.05-0.121-0.117-0.199-0.199l-0.641-0.641c-0.641-0.558-1.519-0.757-2.641-0.597-0.05 0.078-0.066 0.148-0.039 0.199-0.187-0.293-0.464-0.492-0.839-0.602-0.399-0.132-0.829-0.144-1.282-0.039-0.023 0.161-0.039 0.293-0.039 0.403v0.097c0.004 0.075 0.016 0.133 0.039 0.18 0.535-0.183 0.949-0.012 1.242 0.52l0.118 0.242 0.082-0.16c0.215-0.243 0.519-0.254 0.918-0.039zm18.281 4.679-0.16 0.438c0.082-0.184 0.199-0.36 0.359-0.52l0.402-0.519 0.399-0.52 0.242-0.398c0.078-0.321 0.012-0.59-0.203-0.801-0.105-0.133-0.316-0.32-0.637-0.563 0.16-0.183 0.344-0.398 0.559-0.636 0.133-0.188 0.215-0.442 0.238-0.762v-0.078c-0.265-0.082-0.519-0.094-0.758-0.043v0.519c-0.027-0.343-0.148-0.613-0.359-0.796-0.133-0.137-0.387-0.321-0.762-0.563-0.347 0-0.586-0.16-0.719-0.48l-0.082-0.438-0.238-0.199c-0.14-0.109-0.273-0.203-0.398-0.281-0.102-0.063-0.192-0.118-0.282-0.16l-0.121-0.04c-0.054 0-0.093-0.015-0.121-0.043h-0.199c-0.426-0.023-0.812 0.149-1.16 0.524 0.375 0 0.629 0.066 0.762 0.199 0.078 0.078 0.117 0.184 0.117 0.32 0.027 0.133 0.109 0.239 0.242 0.321 0.105 0.051 0.305 0.066 0.598 0.039 0.215-0.028 0.363 0.066 0.441 0.281 0.055 0.133 0.039 0.547-0.039 1.238 0.078-0.238 0.348-0.32 0.801-0.238 0 0.477 0.012 0.824 0.039 1.039h0.441c0.078 0.051 0.145 0.145 0.199 0.277 0.106 0.243 0.106 0.618 0 1.122 0.051-0.055 0.161-0.079 0.321-0.079 0.078 0 0.199 0.012 0.359 0.04 0.078 0.398-0.012 1-0.281 1.8zm-4.121-6.441-0.078-0.121-0.039 0.203h0.16l-0.043-0.082zm-18.719 0.84c0.508 0.187 0.828 0.347 0.961 0.48 0.027 0.028 0.121 0.133 0.281 0.321 0.133 0.105 0.266 0.171 0.399 0.199 0.105-0.321 0.293-0.52 0.558-0.598-0.238-0.137-0.574-0.242-1-0.32-0.105-0.028-0.211-0.043-0.32-0.043-0.051 0-0.105-0.012-0.16-0.039-0.293-0.028-0.531-0.028-0.719 0zm8.922 1.199c0.051 0.242 0.105 0.414 0.16 0.519 0.106-0.238 0.453-0.382 1.039-0.437-0.265-0.105-0.535-0.16-0.801-0.16l-0.32 0.078h-0.078z" inkscape:connector-curvature="0"/>
      <path id="path24" style="fill-rule:evenodd;fill:#635b52" d="m39.133 10.759c-0.211 0.375-0.438 0.692-0.68 0.961 0 0.024-0.012 0.039-0.039 0.039l-0.242 0.239c0 0.027-0.012 0.043-0.039 0.043h-1.078v0.597c0.133 0.481 0.215 0.828 0.238 1.039 0.055 0.348 0.07 0.789 0.043 1.321-0.027 0.429-0.043 0.773-0.043 1.043 0.027-0.641 0.176-1.282 0.441-1.922 0.055-0.078 0.133-0.254 0.243-0.52 0.316-0.426 0.613-0.879 0.878-1.359l0.04-0.281c-0.055-0.293 0.027-0.692 0.238-1.2zm0-4.281c0.082 0.133 0.16 0.281 0.242 0.442 0-0.375 0.027-0.692 0.078-0.961 0-0.051-0.012-0.094-0.039-0.118-0.238-0.613-0.375-0.976-0.398-1.082v-0.281c0-0.105-0.028-0.183-0.082-0.238-0.051 0.586-0.067 1.027-0.039 1.32 0.027 0.266 0.105 0.574 0.238 0.918zm-2.52 5.602c-0.265-0.133-0.519-0.266-0.758-0.403-0.054 0.11-0.082 0.243-0.082 0.403 0 0.32 0.067 0.586 0.2 0.8-0.024-0.242-0.024-0.453 0-0.64 0.054 0.051 0.093 0.121 0.121 0.199v-0.441c0.187-0.078 0.347-0.024 0.48 0.16 0-0.024 0.016-0.051 0.039-0.078zm0.563-6.719c0.293 0.023 0.597 0.105 0.918 0.238 0.054 0.028 0.105 0.055 0.16 0.078 0.082 0.055 0.172 0.11 0.281 0.16-0.082-0.132-0.176-0.265-0.281-0.398v-0.039l-0.039 0.039c-0.16-0.16-0.227-0.519-0.199-1.078 0.023-0.297 0.05-0.684 0.078-1.16 0-0.188 0.011-0.43 0.039-0.723-0.028-0.266-0.078-0.437-0.16-0.519v1.281c0 0.586-0.133 0.961-0.399 1.121v-0.121c-0.027-0.215-0.082-0.387-0.16-0.52h-0.039c-0.187 0.106-0.32 0.414-0.402 0.918-0.051 0.297-0.106 0.535-0.157 0.723h0.36zm-2.043 0.84h0.043c0.105-0.028 0.238-0.11 0.398-0.242-0.187 0.054-0.332 0.132-0.441 0.242z" inkscape:connector-curvature="0"/>
      <path id="path26" style="fill-rule:evenodd;fill:#b3aa9e" d="m39.453 5.959c-0.051 0.265-0.078 0.586-0.078 0.961 0.187 0.398 0.293 0.851 0.32 1.359v0.641c0 0.105-0.015 0.214-0.043 0.32 0 0.051-0.011 0.117-0.039 0.199-0.078 0.348-0.215 0.719-0.398 1.121-0.027 0.078-0.055 0.145-0.082 0.199-0.211 0.504-0.293 0.907-0.238 1.2l-0.043 0.281-0.719 3.918c0.215-0.961 0.426-1.668 0.64-2.121 0.082-0.184 0.254-0.492 0.52-0.918 0.266-0.399 0.441-0.707 0.519-0.918 0.376-0.883 0.559-1.723 0.559-2.524 0-0.211-0.023-0.918-0.078-2.117-0.133-1.094-0.41-1.629-0.84-1.601zm-2.879 6.199c-0.133-0.184-0.293-0.238-0.48-0.16v0.882l0.398 4.797c0.403-3.117 0.43-4.957 0.082-5.519zm0.84-8.438c0.082 0.133 0.133 0.305 0.16 0.52v-0.801c0-0.187 0.016-0.508 0.039-0.961 0-0.398-0.051-0.691-0.16-0.879-0.16 0.906-0.172 1.613-0.039 2.121zm0.84 1.68 0.641-0.762c0-1.304-0.04-2.105-0.122-2.398 0-0.055-0.078-0.426-0.238-1.121-0.105-0.453-0.16-0.824-0.16-1.117-0.105 0.664-0.16 1.16-0.16 1.476-0.051 0.375-0.078 0.711-0.078 1-0.032 0.293-0.043 0.535-0.043 0.723-0.028 0.476-0.051 0.863-0.078 1.16-0.028 0.559 0.039 0.918 0.199 1.078l0.039-0.039zm-2.32-2.082c-0.161 0.109-0.227 0.426-0.2 0.961 0.055 0.613 0.082 1 0.082 1.16l0.157-0.68c0-0.828-0.012-1.308-0.039-1.441z" inkscape:connector-curvature="0"/>
      <path id="path28" style="fill-rule:evenodd;fill:#93846f" d="m37.055 12.041h0.718c-0.347-0.055-0.668-0.149-0.957-0.282-0.64-0.265-1.109-0.492-1.402-0.679-0.16-0.11-0.441-0.188-0.84-0.243-0.64-0.05-1.386-0.316-2.238-0.8l-0.602-0.278c-0.132-0.082-0.332-0.242-0.601-0.48-0.133-0.109-0.41-0.203-0.84-0.281h-0.039c0.055 0.027 0.094 0.039 0.121 0.039 0.105 0.054 0.215 0.109 0.32 0.16l0.438 0.359 1.523 0.844 2.957 1.16c0.082 0.051 0.16 0.094 0.242 0.117 0.239 0.133 0.493 0.27 0.758 0.403l0.442-0.039zm-1.321-1.282 0.641-0.082c0.238-0.023 0.625 0.055 1.16 0.243 0.504 0.214 0.891 0.292 1.16 0.238 0-0.078 0.067-0.211 0.2-0.399-0.083-0.082-0.309-0.16-0.68-0.238l-1.043-0.523c-0.344-0.133-0.785-0.172-1.317-0.118-0.695 0.079-1.375-0.027-2.043-0.32-1.144-0.48-1.796-0.734-1.957-0.762l-0.082-0.039h-0.078c-0.347-0.082-0.879-0.121-1.601-0.121 0.16 0.028 0.441 0.11 0.84 0.242 0.773 0.211 1.375 0.442 1.8 0.68l1.082 0.52 0.52 0.281c0.613 0.266 1 0.398 1.16 0.398h0.238zm-10.64-2-0.481 0.239c0.828-0.266 1.68-0.426 2.563-0.477l0.797 0.039c0.269 0 0.55 0.027 0.843 0.078l0.52 0.082c0.184 0.028 0.371 0.067 0.559 0.117l-0.641-0.238c-0.559-0.16-1.442-0.187-2.641-0.078-0.691 0.051-1.199 0.133-1.519 0.238zm-4.16 2.161 0.082-0.282v-0.078c0.023-0.32 0.183-0.562 0.48-0.723l1.359-0.878c0.184-0.106 0.493-0.375 0.918-0.801 0.133-0.082 0.215-0.172 0.243-0.281-0.563 0.16-0.977 0.32-1.243 0.48l-1.359 1.043c-0.48 0.344-0.773 0.812-0.879 1.398-0.082 0.399-0.066 0.961 0.039 1.68 0.028-0.027 0.082-0.266 0.16-0.719l0.2-0.839zm1.519 3.757 0.281 0.082h0.121c0.051 0 0.106-0.015 0.161-0.039 0.398-0.027 0.757-0.027 1.078 0 0 0.024 0.011 0.039 0.039 0.039l0.082 0.039v-0.039c-0.375-0.347-0.785-0.601-1.242-0.761-0.293-0.078-0.52-0.118-0.68-0.118l-0.32-0.043-0.399 0.043c-0.64 0.051-1 0.184-1.078 0.399l0.238 0.043c0.559 0.051 0.907 0.105 1.039 0.156h0.043l0.637 0.199zm-2.758-4.316-0.082 0.039-0.039 0.039-0.039 0.082c0 0.156 0.094 0.637 0.281 1.438 0.079 0.293 0.133 0.707 0.157 1.242 0.16 0.023 0.254-0.067 0.281-0.281 0.027-0.188 0-0.387-0.078-0.602-0.11-0.266-0.149-0.598-0.121-1 0-0.238 0.011-0.586 0.039-1.039l-0.399 0.082zm6.598-3.121h0.164c0.16-0.028 0.332-0.039 0.52-0.039l2.398-0.16c-0.133-0.055-0.52-0.121-1.16-0.204-0.774-0.05-1.426-0.023-1.961 0.083-0.637 0.132-0.957 0.292-0.957 0.48 0.426-0.109 0.758-0.16 0.996-0.16zm8.402 1.039c-0.746-0.051-1.308-0.133-1.679-0.238-0.426-0.133-1.094-0.204-2-0.204-0.801 0-1.403 0.043-1.801 0.122l-1.481 0.359c1.758-0.051 3.055-0.012 3.879 0.121l1.68 0.121 1.402-0.281zm-13.32 8.242c0.105 0.156 0.199 0.344 0.281 0.559l0.039-0.442c-0.054-0.187-0.121-0.281-0.199-0.281l-0.16 0.043 0.039 0.121zm-6.941-0.184 0.019-0.019v-0.039l0.043-0.039c0.106-0.133 0.227-0.215 0.359-0.242 0.079-0.028 0.321-0.039 0.719-0.039 0.426 0 1.082-0.016 1.961-0.039 0.774 0.023 1.414 0.089 1.918 0.199l0.961 0.16c-0.187-0.32-0.387-0.508-0.598-0.559-0.214-0.054-0.468-0.07-0.761-0.043-0.371 0.028-0.641 0.055-0.801 0.082h-2.16c-0.692 0-1.172 0.078-1.438 0.239-0.16 0.054-0.254 0.187-0.281 0.402 0.023-0.023 0.043-0.043 0.059-0.063zm-1.739 1.821h-0.039c0.078 0.054 0.145 0.121 0.199 0.203l0.079 0.039c0.082 0.105 0.148 0.211 0.199 0.32 0.109-0.133 0.137-0.293 0.082-0.48-0.188-0.106-0.36-0.133-0.52-0.082zm14.039-2.637-0.519-0.082h-0.039c-0.348-0.027-0.629-0.012-0.84 0.039 0.344 0.215 0.68 0.359 1 0.442l0.277 0.039c0.403 0.054 0.641 0.093 0.723 0.121-0.082-0.215-0.215-0.36-0.402-0.442-0.051-0.027-0.118-0.066-0.2-0.117zm-4.48 1.918v-0.719l-0.039-0.199v-0.082c-0.055-0.133-0.133-0.199-0.242-0.199h-0.078l0.121 0.48v0.438l0.117 0.32 0.082 0.281 0.039-0.32z" inkscape:connector-curvature="0"/>
      <path id="path30" style="fill-rule:evenodd;fill:#786c5c" d="m28.613 7.439 1.762 0.039h-0.98c0.152 0.004 0.347 0.02 0.578 0.043 0.402 0 0.734-0.027 1-0.082 0.882-0.215 1.453-0.254 1.722-0.117l0.399 0.277 0.879 0.199c0.32 0.11 0.722 0.161 1.203 0.161h1.84c0.324-0.051 0.578-0.137 0.757-0.258-0.285 0.203-0.644 0.344-1.078 0.418h-0.679c-0.266-0.028-0.481 0.015-0.641 0.121-0.695 0.347-1.187 0.519-1.48 0.519h-0.879c-0.028 0-0.282-0.039-0.762-0.121h-0.801l0.242 0.121h0.078l0.082 0.039 0.641 0.122 0.957-0.043c0.055 0 0.348 0.027 0.883 0.082 0.371 0.027 0.664 0.015 0.879-0.039l0.199-0.083-1.398 0.043c0.398-0.027 0.957-0.132 1.679-0.32 0.078-0.027 0.575-0.105 1.481-0.238 0.215-0.082 0.426-0.11 0.64-0.082 0.211 0 0.52 0.066 0.918 0.199 0.375 0.055 0.653 0.039 0.84-0.039l0.121-0.039v-0.082l-0.082-0.442c-0.105-0.183-0.32-0.304-0.64-0.359-0.774-0.051-1.45-0.039-2.039 0.043-0.668 0.078-1.36 0.117-2.079 0.117-0.64 0-1.121-0.051-1.441-0.16-0.535-0.266-0.961-0.414-1.281-0.441-0.238-0.024-0.547-0.012-0.918 0.043-0.453 0.05-0.762 0.078-0.922 0.078l0.043 0.043c-0.094 0-0.188-0.016-0.281-0.043h-0.641l-1.398 0.16 0.597 0.121zm9.801 4.32-1.598-0.398 1.2 0.598 0.16 0.039 0.238-0.239zm-2.801-0.839 0.922 0.039-0.801-0.2h-0.238c-0.16 0-0.547-0.132-1.16-0.398l-0.52-0.281-0.562-0.243c0.242 0.188 1.027 0.547 2.359 1.083zm-14.32-2.36c0.348-0.109 0.656-0.32 0.922-0.64l0.039-0.043c0.269-0.211 0.469-0.29 0.601-0.239l-0.281 0.321 0.801-0.122h0.801l0.117-0.039h0.043c0.105-0.054 0.332-0.253 0.68-0.601-0.403 0.137-0.84 0.215-1.321 0.242l-0.48 0.039c-0.879 0.16-1.586 0.508-2.121 1.043l0.199 0.039zm2.242 0.801 0.32-0.082 0.758-0.281 0.481-0.239c-1.145 0-1.934 0.188-2.36 0.559-0.265 0.242-0.519 0.519-0.757 0.84 0.398-0.426 0.863-0.68 1.398-0.758l0.16-0.039zm-2 1.238c-0.055-0.054-0.094-0.148-0.121-0.281-0.055-0.16-0.105-0.254-0.16-0.281-0.078 0.136-0.16 0.308-0.238 0.523v0.078l-0.082 0.282-0.039 0.281c-0.055 0.293-0.055 0.558 0 0.797v-0.719c0.054 0.215 0.121 0.348 0.199 0.398 0.082-0.05 0.148-0.211 0.199-0.476 0.055-0.293 0.121-0.481 0.203-0.563l0.039-0.039zm-0.242 2.602c0.215-0.137 0.215-0.281 0-0.442h-0.039l0.039 0.442zm2.68 0.84c-0.157-0.133-0.426-0.282-0.797-0.442l-0.043-0.039h-0.117c-0.536-0.133-0.95-0.176-1.243-0.121l-0.32 0.121 0.121 0.317 0.399-0.04 0.32 0.04 0.082-0.04c0.348-0.078 0.613-0.078 0.801 0l0.238 0.2c0.242 0.027 0.414 0.07 0.52 0.121l-0.079-0.117h0.118zm-1.559 3.796c0.027-0.023 0.066-0.039 0.121-0.039l0.039-0.437c0-0.109-0.066-0.496-0.199-1.16-0.055-0.215-0.133-0.387-0.242-0.524-0.133-0.105-0.383-0.277-0.758-0.515h0.078c-0.183-0.188-0.305-0.336-0.359-0.442 0.375 0.051 0.64 0.067 0.801 0.039l0.558-0.082-0.637-0.199h-0.043l-0.558-0.039 0.039 0.121-0.16-0.039-0.36-0.203-0.238-0.039-0.441-0.082 0.039 0.043 0.121 0.238 0.078 0.082 0.363 0.277 0.278 0.485c0.242 0.133 0.425 0.265 0.562 0.398 0.078 0.078 0.211 0.36 0.399 0.84 0-0.16-0.028-0.398-0.079-0.719 0.051 0 0.106 0.133 0.157 0.399 0.109 0 0.187 0.066 0.242 0.199v0.082l0.039 0.199 0.039 0.438-0.039 0.281-0.039 0.32-0.082-0.281h-0.039l-0.078 0.043-0.043 0.316c0.132-0.023 0.281-0.023 0.441 0zm-0.16-9.476-0.598 0.559c0.266-0.133 0.41-0.227 0.438-0.282l0.16-0.277zm5.601-2.922-0.882 0.398 0.843-0.039c0.317-0.027 0.586-0.011 0.797 0.039-0.133 0.055-0.332 0.083-0.597 0.083-0.293-0.028-0.508-0.043-0.641-0.043-0.402 0.109-0.707 0.187-0.922 0.242l-0.519 0.48 0.519-0.121c0.16-0.023 0.641-0.039 1.442-0.039 0.16 0 0.359 0.055 0.601 0.16 0.16 0.078 0.359 0.106 0.598 0.078 0.429 0 0.761 0.11 1 0.321l1.722-0.239c0.184-0.027 0.45-0.015 0.797 0.039h0.282l-0.079-0.039c-0.562-0.082-0.961-0.16-1.203-0.238l-1-0.484c-0.398-0.184-0.746-0.305-1.039-0.36l-0.679-0.199c-0.106-0.023-0.442-0.039-1-0.039h-0.04zm10.598 6.281 0.363-0.48h-0.843l-0.637-0.121c0.266 0.105 0.637 0.308 1.117 0.601zm-2.48-3c0.242 0.024 0.574 0.227 1 0.598 0.347 0.293 0.656 0.441 0.922 0.441 0.371 0 0.906 0.028 1.597 0.078l0.121-0.398c-0.265 0.055-0.508 0.055-0.718 0-0.133-0.051-0.282-0.148-0.442-0.281-0.187-0.211-0.305-0.332-0.359-0.36v-0.039c-0.055-0.027-0.121-0.054-0.199-0.082l-0.481-0.117h-0.641c-0.211 0-0.48 0.051-0.8 0.16zm-21.957 10.078c-0.028-0.078-0.043-0.16-0.043-0.238 0-0.215-0.024-0.375-0.078-0.48-0.055-0.082-0.2-0.16-0.442-0.243-0.211-0.105-0.453-0.144-0.719-0.117 0.133-0.027 0.332-0.121 0.602-0.281l-0.281 0.082-0.559 0.277c0.371-0.027 0.637 0 0.797 0.082 0.137 0.106 0.227 0.266 0.281 0.481 0 0.32-0.027 0.519-0.078 0.598l-0.16 0.121 0.078 0.242h0.039c0.215 0 0.363-0.055 0.442-0.16 0-0.164 0.039-0.282 0.121-0.364zm0.16-3.121c-0.641 0.75-1.11 1.203-1.403 1.364l0.36-0.082c-0.266 0.187-0.598 0.347-1 0.48-0.317 0.055-0.571 0.121-0.758 0.199-0.426 0.242-0.652 0.535-0.68 0.883-0.027 0.051 0 0.199 0.078 0.438v0.082c0.028-0.348 0.11-0.602 0.243-0.762v-0.039c0.05-0.293 0.211-0.492 0.48-0.602 0.106-0.051 0.41-0.117 0.918-0.199l0.801-0.199h-0.32c0.375-0.082 0.652-0.227 0.839-0.442 0.106-0.105 0.188-0.277 0.239-0.519 0.054-0.293 0.121-0.492 0.203-0.602zm13.797 0.801c0.054 0.055 0.093 0.121 0.121 0.199-0.055-0.316-0.145-0.586-0.282-0.797l-0.039-0.043-0.16-0.078-0.199 0.039c0.188 0.11 0.348 0.293 0.481 0.563l0.078 0.117zm-17.239 3.442v-0.161l-0.16 0.121 0.16 0.04zm15.239-4.559 0.242 0.078 0.519 0.082 0.121 0.039c-0.187-0.082-0.293-0.121-0.32-0.121h0.438c-0.293-0.133-0.598-0.16-0.918-0.078h-0.082z" inkscape:connector-curvature="0"/>
      <path id="path32" style="fill-rule:evenodd;fill:#867966" d="m35.734 10.759 0.801 0.2 0.719 0.16h0.082l0.637 0.121h0.843l-0.363 0.48c0.242-0.269 0.469-0.586 0.684-0.961 0.023-0.054 0.051-0.121 0.078-0.199 0.187-0.402 0.32-0.773 0.402-1.121l-0.121 0.398c-0.695-0.05-1.226-0.078-1.601-0.078-0.266 0-0.571-0.148-0.918-0.441-0.426-0.371-0.762-0.574-1-0.598l-0.559 0.117-0.203 0.083c-0.215 0.05-0.508 0.066-0.879 0.039-0.535-0.051-0.828-0.079-0.883-0.079l-0.957 0.04-0.641-0.122c0.161 0.028 0.813 0.282 1.961 0.762 0.664 0.293 1.344 0.399 2.039 0.317 0.532-0.051 0.973-0.012 1.321 0.121l1.039 0.519c0.375 0.082 0.601 0.16 0.68 0.242-0.133 0.184-0.2 0.317-0.2 0.399-0.265 0.054-0.652-0.028-1.16-0.238-0.535-0.188-0.918-0.27-1.16-0.243l-0.641 0.082zm3.879-2.922 0.082 0.442c-0.027-0.508-0.133-0.957-0.32-1.359-0.082-0.161-0.16-0.309-0.238-0.442-0.055-0.078-0.11-0.156-0.16-0.238 0.078 0.133 0.16 0.265 0.238 0.398 0.238 0.403 0.375 0.801 0.398 1.199zm-1.437 4.161-0.16-0.039-1.2-0.598-0.32-0.043c-0.348-0.184-0.641-0.32-0.883-0.398-1.332-0.536-2.117-0.895-2.359-1.083l0.562 0.243-1.082-0.52c-0.425-0.242-1.027-0.469-1.8-0.683-0.399-0.133-0.68-0.211-0.84-0.239 0.718 0 1.254 0.039 1.601 0.121l-0.242-0.121h0.801c0.48 0.082 0.734 0.121 0.762 0.121h0.879c0.293 0 0.785-0.175 1.48-0.519 0.16-0.11 0.375-0.149 0.641-0.121h0.679c0.434-0.078 0.793-0.215 1.078-0.418-0.179 0.121-0.433 0.207-0.757 0.258h-1.84c-0.481 0-0.883-0.051-1.199-0.161l-0.883-0.199-0.399-0.281c-0.265-0.133-0.84-0.094-1.718 0.121-0.27 0.051-0.602 0.082-1 0.082-0.235-0.023-0.426-0.039-0.582-0.043h-1.782c-1.25 0-2.25 0.227-3 0.68 0.16-0.559 0.723-0.867 1.68-0.918-0.238 0-0.57 0.051-1 0.16 0-0.188 0.32-0.348 0.961-0.48 0.535-0.11 1.187-0.133 1.961-0.083 0.64 0.083 1.027 0.149 1.16 0.2l-2.402 0.16c0.109 0 0.215 0.015 0.32 0.043l1.32 0.199-0.597-0.121 1.398-0.16h0.281c0.028-0.051 0.16-0.106 0.399-0.16-0.239-0.211-0.571-0.321-1-0.321-0.239 0.028-0.438 0-0.598-0.078-0.242-0.105-0.441-0.16-0.601-0.16-0.801 0-1.282 0.016-1.442 0.039l-0.519 0.121-0.118 0.078c-0.214 0.188-0.48 0.364-0.8 0.524-0.348 0.344-0.575 0.547-0.68 0.597h-0.043l-0.117 0.039h-0.801l-0.801 0.122c-0.16 0.16-0.265 0.293-0.32 0.402l-0.16 0.277c-0.028 0.055-0.172 0.149-0.438 0.282-0.242 0.242-0.48 0.425-0.722 0.558l-1.239 0.883 0.399-0.082c-0.028 0.453-0.039 0.801-0.039 1.039-0.028 0.402 0.011 0.734 0.121 1 0.078 0.215 0.105 0.414 0.078 0.602-0.027 0.214-0.121 0.304-0.281 0.281v0.359c-0.024 0.211 0 0.426 0.082 0.641l0.441 0.078c0.078-0.215 0.438-0.348 1.078-0.399l-0.121-0.32c-0.586 0.211-0.933 0.305-1.039 0.277 0.027-0.105 0.148-0.226 0.359-0.359 0.11-0.051 0.282-0.144 0.52-0.277l-0.039-0.442c-0.16-0.132-0.266-0.308-0.32-0.519l-0.039-0.242c-0.055-0.239-0.055-0.504 0-0.797l0.039-0.281-0.2 0.839c-0.078 0.453-0.132 0.692-0.16 0.719-0.105-0.719-0.121-1.281-0.039-1.68 0.106-0.586 0.399-1.054 0.879-1.398l1.359-1.043c0.266-0.16 0.68-0.32 1.243-0.48-0.028 0.109-0.11 0.199-0.243 0.281-0.425 0.426-0.734 0.695-0.918 0.801l-1.359 0.878c-0.297 0.161-0.457 0.403-0.48 0.723 0.078-0.215 0.16-0.387 0.238-0.523 0.055 0.027 0.105 0.121 0.16 0.281 0.027 0.133 0.066 0.227 0.121 0.281l0.438-0.441c0.242-0.321 0.496-0.598 0.761-0.84 0.426-0.371 1.215-0.559 2.36-0.559 0.32-0.105 0.828-0.187 1.519-0.238 1.199-0.109 2.082-0.082 2.641 0.078l0.641 0.238c-0.188-0.05-0.375-0.089-0.559-0.117 0.371 0.078 0.691 0.172 0.957 0.282 0.43 0.078 0.707 0.171 0.84 0.277 0.269 0.242 0.469 0.402 0.601 0.48l0.602 0.282c0.852 0.48 1.598 0.746 2.238 0.8 0.399 0.051 0.68 0.133 0.84 0.239 0.293 0.187 0.762 0.414 1.402 0.683 0.289 0.133 0.614 0.227 0.957 0.278h0.36c0.027 0 0.043-0.016 0.043-0.043zm-3.481-3.719-1.402 0.281-1.68-0.121c-0.824-0.133-2.117-0.172-3.879-0.117l1.481-0.363c0.398-0.079 1-0.118 1.801-0.118 0.906 0 1.574 0.067 2 0.2 0.371 0.105 0.933 0.183 1.679 0.238zm-4.64-1.121c0.093 0.027 0.187 0.043 0.281 0.043l-0.043-0.043c-0.066 0.023-0.148 0.023-0.238 0zm8.039-1.559c-0.321-0.133-0.625-0.215-0.918-0.238 0.215 0.023 0.426 0.078 0.64 0.16l0.278 0.078zm-12-0.398 0.121-0.043c0.133-0.051 0.281-0.094 0.441-0.117-0.242 0.023-0.429 0.078-0.562 0.16zm-5 3.019c0.07-0.14 0.176-0.277 0.32-0.422-0.105 0.082-0.199 0.176-0.281 0.282-0.024 0.027-0.039 0.054-0.039 0.082l0.16-0.203c-0.066 0.089-0.117 0.175-0.16 0.261zm-1.52 2.219c0-0.051 0.028-0.172 0.082-0.359-0.054 0.16-0.094 0.308-0.121 0.441l0.039-0.082zm2.321 7.441v-1.32c-0.188-0.48-0.321-0.762-0.399-0.84-0.137-0.133-0.32-0.269-0.562-0.402 0.214 0.32 0.347 0.519 0.402 0.602-0.16-0.083-0.254-0.176-0.281-0.282l-0.082-0.078-0.157-0.199 0.079 0.16v0.039l-0.079-0.082-0.121-0.078-0.32-0.281-0.602-0.039-0.359 0.039c0.027 0.027 0.133 0.105 0.32 0.242-0.48-0.082-0.734-0.121-0.761-0.121l-0.918 0.199c-0.239 0.055-0.535 0.066-0.879 0.039-0.586-0.023-0.895-0.039-0.922-0.039-0.453-0.027-0.813-0.039-1.078-0.039-0.453 0-0.789 0.094-1 0.277-0.082 0.11-0.149 0.309-0.203 0.602-0.051 0.242-0.133 0.414-0.239 0.519-0.187 0.215-0.464 0.36-0.839 0.442h0.32l-0.801 0.199c-0.508 0.082-0.812 0.148-0.918 0.199-0.269 0.11-0.43 0.309-0.48 0.602 0.132-0.133 0.343-0.242 0.64-0.32l0.559-0.122c0.16 0.11 0.32 0.227 0.48 0.364 0.16-0.055 0.332-0.028 0.52 0.078 0.055 0.187 0.027 0.347-0.082 0.48 0.082 0.106 0.148 0.227 0.203 0.36l0.16-0.121c0.051-0.079 0.078-0.278 0.078-0.598-0.054-0.215-0.148-0.375-0.281-0.481-0.16-0.082-0.426-0.109-0.797-0.082l0.559-0.277 0.281-0.082 0.359-0.199-0.121 0.117c0.133-0.078 0.387-0.371 0.762-0.879 0.023-0.051 0.059-0.098 0.098-0.141l-0.059 0.059c0.027-0.211 0.121-0.344 0.281-0.398 0.266-0.161 0.746-0.239 1.438-0.239h2.16c0.16-0.027 0.43-0.054 0.801-0.082 0.293-0.027 0.547-0.015 0.761 0.039 0.211 0.055 0.411 0.243 0.598 0.559l-0.961-0.156c0.563 0.183 1.176 0.25 1.84 0.199l0.082 0.199-0.039-0.121 0.16-0.039c0.078 0 0.145 0.094 0.199 0.281l-0.039 0.438v0.043c0.078 0.242 0.133 0.508 0.16 0.801 0.024 0 0.051-0.012 0.079-0.04zm6.601-1.679c-0.215-0.375-0.496-0.629-0.84-0.762-0.133-0.051-0.269-0.094-0.402-0.117 0.586 0.183 1 0.476 1.242 0.879zm-17.762 3.719v0.96h0.039c0-0.375-0.011-0.949-0.039-1.722v0.762zm9.36-5.68c0.027 0.105 0.066 0.199 0.121 0.281v-0.043l-0.121-0.238zm6.761 1.32-0.121-0.039c0.082 0.051 0.149 0.09 0.2 0.117 0.187 0.082 0.32 0.227 0.402 0.442h0.039c0.238 0.05 0.441 0.183 0.598 0.398l-0.078-0.117c-0.133-0.27-0.293-0.453-0.481-0.563h-0.121c-0.188-0.105-0.332-0.187-0.438-0.238zm-0.64-0.121-0.242-0.078c-0.266 0.051-0.493 0.039-0.68-0.043-0.266-0.133-0.504-0.387-0.719-0.758-0.187-0.242-0.386-0.414-0.601-0.519h-0.118l0.079 0.117c-0.106-0.051-0.282-0.094-0.52-0.117l-0.238-0.204c-0.188-0.078-0.453-0.078-0.801 0l-0.082 0.043c0.16 0 0.387 0.04 0.68 0.118 0.453 0.16 0.867 0.414 1.242 0.761 0.265 0.106 0.625 0.348 1.078 0.719 0.348 0.215 0.695 0.359 1.043 0.442-0.32-0.083-0.652-0.227-1-0.442 0.215-0.051 0.492-0.066 0.84-0.039h0.039zm-4.199 1.281-0.043 1.117 0.043-0.316 0.078-0.043h0.043l-0.121-0.32v-0.438zm0.238 0v0.719l0.039-0.281-0.039-0.438zm-0.481-2.242c-0.132-0.051-0.48-0.105-1.039-0.156l0.36 0.199 0.16 0.039-0.039-0.121 0.558 0.039zm1.122-1.277h0.121c-0.047-0.012-0.086-0.024-0.121-0.043v0.043zm0.281 0.398 0.957 0.321-0.238-0.161-0.083-0.039c-0.21-0.187-0.507-0.32-0.878-0.402 0.105 0.133 0.281 0.227 0.519 0.281l-0.039 0.039-0.281-0.078 0.043 0.039zm-0.442 1.16-0.121 0.039c0.082-0.023 0.153-0.039 0.223-0.039h-0.102zm0.039 0.801-0.16-0.762 0.082 0.442 0.078 0.32zm3.68-9.441c0.215-0.055 0.52-0.133 0.922-0.242 0.133 0 0.348 0.015 0.641 0.043 0.265 0 0.464-0.028 0.597-0.083-0.211-0.05-0.48-0.066-0.797-0.039l-0.843 0.039-0.36 0.161-0.16 0.121z" inkscape:connector-curvature="0"/>
      <path id="path34" style="fill-rule:evenodd;fill:#655a4c" d="m38.094 8.759v0.039c0.054 0.028 0.176 0.149 0.359 0.36 0.16 0.133 0.309 0.226 0.442 0.281 0.214 0.055 0.453 0.055 0.718 0 0.028-0.078 0.043-0.148 0.043-0.199h-0.64c-0.082 0-0.348-0.133-0.801-0.403l-0.121-0.078zm-0.68-0.199-0.641-0.082c0.215-0.078 0.536-0.117 0.961-0.117 0.266 0 0.547 0.105 0.84 0.316 0.215 0.082 0.586 0.121 1.121 0.121v-0.437l-0.121 0.039c-0.187 0.078-0.469 0.094-0.84 0.039-0.398-0.133-0.707-0.199-0.918-0.199-0.214-0.028-0.429 0-0.64 0.082-0.91 0.133-1.403 0.211-1.481 0.238-0.722 0.188-1.281 0.293-1.679 0.32l1.398-0.043 0.559-0.117c0.32-0.109 0.589-0.16 0.8-0.16h0.641zm-15.441 1.598-0.438 0.441-0.039 0.039c-0.082 0.082-0.148 0.27-0.203 0.563-0.051 0.265-0.117 0.426-0.199 0.476-0.078-0.05-0.145-0.183-0.199-0.398v0.719l0.039 0.242c0.054 0.215 0.16 0.387 0.32 0.519h0.039c0.215 0.161 0.215 0.305 0 0.442-0.238 0.133-0.41 0.226-0.52 0.277-0.211 0.133-0.332 0.254-0.359 0.359 0.106 0.028 0.453-0.066 1.039-0.277l0.32-0.121c0.293-0.051 0.707-0.012 1.243 0.121h0.117l0.281 0.078 0.039-0.039c-0.238-0.054-0.414-0.148-0.519-0.281-0.161-0.051-0.293-0.078-0.399-0.078l0.36-0.039v-0.043c-0.348-0.078-0.668-0.117-0.961-0.117l-0.559 0.437c0-0.105 0.055-0.238 0.16-0.398l0.039-0.52c-0.027-0.348 0-0.746 0.082-1.199 0.211-0.934 0.84-1.602 1.879-2l-0.16 0.039c-0.535 0.078-1 0.332-1.402 0.758zm-0.68-1.598-0.199-0.039c0.535-0.535 1.242-0.883 2.121-1.043-0.508-0.027-0.906-0.027-1.199 0-0.055 0.027-0.094 0.043-0.121 0.043-0.055 0.024-0.094 0.039-0.122 0.039l-0.316 0.199-0.043 0.039c-0.141 0.145-0.25 0.286-0.32 0.422l-0.039 0.098c-0.02 0.051-0.032 0.105-0.039 0.16v0.16l0.277-0.078zm1.281-0.601 0.281-0.321c-0.132-0.051-0.332 0.028-0.601 0.242-0.027 0.079-0.16 0.239-0.399 0.481-0.32 0.266-0.734 0.531-1.242 0.801l-0.918 0.675c-0.027 0.083-0.039 0.161-0.039 0.243-0.054 0.187-0.082 0.308-0.082 0.359l0.039-0.039 0.082-0.039 1.239-0.883c0.242-0.133 0.48-0.32 0.722-0.558l0.598-0.559c0.055-0.109 0.16-0.242 0.32-0.402zm10.039-1.161c-0.347-0.05-0.613-0.066-0.797-0.039l-1.722 0.239c-0.239 0.054-0.371 0.109-0.399 0.16h0.36c0.09 0.023 0.172 0.023 0.238 0 0.16 0 0.469-0.024 0.922-0.078 0.375-0.055 0.68-0.067 0.918-0.043 0.32 0.027 0.75 0.175 1.281 0.441 0.32 0.109 0.801 0.16 1.441 0.16 0.719 0 1.415-0.039 2.079-0.117 0.589-0.082 1.269-0.094 2.043-0.043 0.316 0.055 0.531 0.176 0.64 0.359-0.027-0.398-0.16-0.8-0.402-1.199-1.465 0.16-2.574 0.282-3.32 0.36l-1.598 0.039c-0.856 0.004-1.414-0.078-1.684-0.239zm-5.64 0.403c-0.184 0-0.36 0.011-0.52 0.039h-0.16c-0.957 0.051-1.52 0.359-1.68 0.918 0.75-0.453 1.75-0.68 3-0.68h2.762l-1.758-0.039-1.32-0.199c-0.109-0.028-0.215-0.039-0.324-0.039zm-0.317-2.16c-0.16 0.023-0.308 0.066-0.441 0.117l-0.082 0.082-0.199 0.398c0.402-0.183 1.015-0.25 1.839-0.199h0.122c0.558 0 0.894 0.016 1 0.039l0.679 0.199c0.293 0.055 0.641 0.176 1.043 0.364l1 0.48c0.238 0.078 0.637 0.156 1.199 0.238l0.079 0.039c0.933 0.028 2.093-0.05 3.48-0.238 0.508-0.105 0.867-0.254 1.082-0.441 0.105-0.16 0.211-0.266 0.32-0.321l0.481-0.117c-0.055-0.027-0.11-0.054-0.16-0.082l-0.282-0.078-0.359 0.039c-0.242 0.051-0.562 0.188-0.961 0.399-0.453 0.214-0.773 0.347-0.961 0.402-0.402 0.133-1.039 0.199-1.922 0.199-0.797 0-1.238-0.015-1.32-0.039-0.371-0.137-0.703-0.32-1-0.562-0.293-0.215-0.625-0.36-1-0.438l-1.199-0.203c-0.426 0-0.801-0.051-1.117-0.16-0.563-0.106-1.004-0.145-1.321-0.117zm1.239 15.879-0.399-1.321c-0.187 0.16-0.601 0.215-1.242 0.16l-0.039 0.52c0.078 0.027 0.16 0.055 0.238 0.082 0.16 0.051 0.336 0.144 0.52 0.277 0.082 0.055 0.148 0.106 0.203 0.16l0.039 0.039c0.238 0.215 0.441 0.442 0.601 0.684 0.024 0.078 0.067 0.145 0.118 0.199l0.121 0.239c0 0.054 0.011 0.093 0.039 0.121v-0.039c-0.028-0.321-0.094-0.696-0.199-1.121zm-13.68-2.282c-0.027-0.051-0.055-0.105-0.082-0.16-0.266-0.613-0.449-0.984-0.559-1.117l0.121-0.121-0.359 0.199c-0.27 0.16-0.469 0.254-0.602 0.281 0.266-0.027 0.508 0.012 0.719 0.117 0.242 0.083 0.387 0.161 0.442 0.243 0.054 0.105 0.078 0.265 0.078 0.48 0 0.078 0.015 0.16 0.043 0.238 0.023-0.078 0.093-0.132 0.199-0.16zm-3.481 2.242v-0.96l-0.16-0.04 0.16-0.121v-0.601l0.039-0.117v-0.082c-0.078-0.239-0.105-0.387-0.078-0.438 0.028-0.348 0.254-0.641 0.68-0.883 0.187-0.078 0.441-0.144 0.758-0.199 0.402-0.133 0.734-0.293 1-0.48l-0.36 0.082c0.293-0.161 0.762-0.614 1.403-1.364 0.211-0.183 0.547-0.277 1-0.277 0.265 0 0.625 0.012 1.078 0.039 0.027 0 0.336 0.016 0.922 0.039 0.344 0.027 0.64 0.016 0.879-0.039l0.918-0.199c0.027 0 0.281 0.039 0.761 0.121-0.187-0.137-0.293-0.215-0.32-0.242l0.359-0.039 0.602 0.039c-0.133-0.133-0.281-0.215-0.441-0.242l-0.758 0.121c-0.348 0.054-0.602 0.121-0.762 0.203-0.215 0.105-0.519 0.16-0.918 0.16-0.883 0-1.414-0.016-1.601-0.043-0.668-0.078-1.305-0.039-1.922 0.121-0.024 0.215-0.039 0.359-0.039 0.438-0.051 0.136-0.161 0.253-0.321 0.363-0.371 0.293-0.652 0.465-0.84 0.519-0.238 0.106-0.519 0.2-0.839 0.278-0.399 0.082-0.653 0.148-0.758 0.203-0.242 0.105-0.442 0.281-0.602 0.519-0.078 0.133-0.16 0.399-0.238 0.801-0.082 0.344-0.188 0.598-0.32 0.758l0.078 0.121-0.039 1.039c0.078 0.082 0.148 0.149 0.199 0.199 0.133 0.11 0.293 0.176 0.48 0.203zm10.2-5.562-0.278-0.481-0.363-0.277c0.242 0.266 0.414 0.531 0.523 0.801l0.157 0.199 0.082 0.078c0.027 0.11 0.121 0.199 0.281 0.282-0.055-0.083-0.188-0.282-0.402-0.602zm1.039 2.519 0.043-1.117-0.121-0.48h0.082c-0.055-0.266-0.11-0.403-0.161-0.403 0.051 0.321 0.079 0.563 0.079 0.723v1.32c0.027 0 0.054-0.015 0.078-0.043zm6.32 1.161-0.117-0.278-0.203 0.278c-0.024 0.054-0.051 0.109-0.078 0.16 0.078 0 0.171-0.012 0.281-0.039h0.16l-0.043-0.078v-0.043zm-4.16-5.078-0.957-0.321c0.371 0.16 0.64 0.309 0.797 0.442 0.215 0.105 0.414 0.281 0.601 0.519 0.215 0.371 0.453 0.625 0.719 0.758 0.187 0.082 0.414 0.094 0.68 0.043h0.082c0.32-0.082 0.625-0.055 0.918 0.078h-0.438c0.027 0 0.133 0.039 0.32 0.121 0.106 0.051 0.25 0.133 0.438 0.238h0.121l0.199-0.039 0.16 0.078c-0.214-0.265-0.386-0.437-0.519-0.515-0.348-0.11-0.641-0.203-0.879-0.281-0.375 0-0.641-0.028-0.801-0.082-0.375-0.051-0.707-0.254-1-0.598l-0.441-0.441zm-10.719 5.398c0.055 0.187 0.094 0.359 0.121 0.519h0.078c0.16-0.05 0.309-0.078 0.442-0.078-0.106-0.16-0.16-0.347-0.16-0.558v-0.043c-0.079 0.109-0.227 0.16-0.442 0.16h-0.039zm9.121-1.52 0.039-0.039c0.188-0.132 0.215-0.468 0.082-1-0.027-0.132-0.082-0.32-0.16-0.558-0.082-0.215-0.176-0.375-0.281-0.481l-0.082-0.043c0.109 0.133 0.187 0.309 0.242 0.52 0.133 0.668 0.199 1.055 0.199 1.16l-0.039 0.441zm-1.082-2.64 1.242 0.082-0.082-0.442 0.121-0.039-0.281-0.082-0.558 0.082c-0.161 0.028-0.426 0.016-0.801-0.039 0.054 0.106 0.176 0.254 0.359 0.438z" inkscape:connector-curvature="0"/>
      <path id="path36" style="fill-rule:evenodd;fill:#473e36" d="m39.695 8.798c-0.535 0-0.906-0.039-1.121-0.121-0.293-0.211-0.574-0.316-0.84-0.316-0.425 0-0.746 0.039-0.961 0.117l0.641 0.082 0.481 0.117c0.082 0.028 0.148 0.055 0.199 0.082l0.121 0.082c0.453 0.266 0.719 0.399 0.801 0.399h0.64c0.028-0.106 0.039-0.215 0.039-0.32v-0.122zm-3.16 2.161-0.922-0.039c0.242 0.078 0.535 0.214 0.883 0.398l0.32 0.043 1.598 0.398c0.027 0 0.039-0.015 0.039-0.039-0.48-0.293-0.851-0.496-1.117-0.601h-0.082l-0.719-0.16zm-13-1.598c-1.043 0.398-1.668 1.066-1.883 2-0.078 0.449-0.105 0.851-0.078 1.199l-0.039 0.52c-0.105 0.16-0.16 0.293-0.16 0.398l0.559-0.437c-0.426-1.282-0.161-2.321 0.8-3.121 0.293-0.243 0.668-0.454 1.121-0.641l-0.32 0.082zm-0.32-1.883 0.48-0.039c0.481-0.027 0.918-0.105 1.321-0.238 0.32-0.16 0.586-0.336 0.8-0.524l0.118-0.078 0.519-0.48 0.16-0.121 0.36-0.161 0.882-0.398h-0.082c-0.824-0.051-1.441 0.016-1.839 0.199l0.199-0.398 0.082-0.082-0.121 0.043c-0.16 0.078-0.332 0.293-0.52 0.636-0.211 0.348-0.398 0.563-0.558 0.641-0.454 0.055-0.762 0.094-0.922 0.121-0.239 0.055-0.559 0.188-0.957 0.399-0.535 0.214-0.949 0.386-1.242 0.523 0.027 0 0.066-0.016 0.121-0.043 0.293-0.027 0.691-0.027 1.199 0zm15.758-1.238c-0.051-0.028-0.09-0.067-0.118-0.121l-0.199-0.199c-0.054-0.028-0.094-0.055-0.121-0.083-0.105-0.05-0.199-0.105-0.281-0.16l-0.481 0.121c-0.105 0.055-0.211 0.161-0.32 0.321-0.211 0.187-0.57 0.332-1.078 0.441-1.387 0.184-2.547 0.266-3.48 0.238h-0.282c0.266 0.161 0.828 0.239 1.68 0.239l1.602-0.039c0.746-0.078 1.851-0.2 3.32-0.36-0.082-0.133-0.16-0.265-0.242-0.398zm-3.399-0.281c-0.16 0.132-0.293 0.214-0.398 0.242h-0.043c-0.985 0.398-2.106 0.265-3.36-0.403-0.371-0.211-0.812-0.347-1.32-0.398-0.078-0.027-0.265-0.039-0.558-0.039-0.161 0-0.305-0.016-0.442-0.043h-0.359l1.199 0.203c0.375 0.078 0.707 0.223 1 0.438 0.293 0.242 0.629 0.425 1 0.562 0.082 0.024 0.523 0.039 1.32 0.039 0.883 0 1.52-0.066 1.922-0.199 0.188-0.055 0.504-0.188 0.957-0.402 0.403-0.215 0.723-0.348 0.961-0.399l0.359-0.039c-0.21-0.082-0.425-0.137-0.64-0.16h-0.36c-0.132 0-0.277 0.023-0.437 0.078s-0.359 0.172-0.602 0.359c-0.078 0.055-0.144 0.11-0.199 0.161zm-15.879 3.878 0.918-0.679c0.508-0.266 0.922-0.531 1.242-0.797 0.239-0.242 0.372-0.402 0.399-0.484l-0.039 0.043c-0.266 0.32-0.574 0.531-0.922 0.64l-0.277 0.078v-0.16c0.007-0.055 0.019-0.109 0.039-0.156l0.039-0.102c0.043-0.086 0.094-0.172 0.16-0.261l-0.16 0.203h-0.039l-0.082 0.117c-0.133 0.16-0.25 0.293-0.36 0.398-0.211 0.188-0.386 0.375-0.519 0.563-0.188 0.238-0.321 0.437-0.399 0.597zm1.121 5.524c-0.109-0.27-0.281-0.535-0.523-0.801l-0.078-0.082v0.043c-0.481 0.184-0.828 0.305-1.039 0.356-0.16 0.027-0.75 0.082-1.762 0.16h-1.719c-0.347-0.024-0.613-0.024-0.8 0-0.348 0-0.602 0.054-0.762 0.16-0.16 0.109-0.305 0.308-0.438 0.601-0.16 0.293-0.293 0.493-0.402 0.602-0.133 0.133-0.305 0.25-0.52 0.359 0.188-0.054 0.469-0.226 0.84-0.519 0.16-0.11 0.27-0.227 0.321-0.363 0-0.079 0.015-0.223 0.039-0.438 0.617-0.16 1.254-0.199 1.922-0.121 0.187 0.027 0.718 0.043 1.601 0.043 0.399 0 0.703-0.055 0.918-0.16 0.16-0.082 0.414-0.149 0.762-0.203l0.758-0.118c0.16 0.028 0.308 0.106 0.441 0.239l0.32 0.281 0.121 0.078 0.079 0.082v-0.039l-0.079-0.16zm1.719 2.437c-0.055 0-0.094 0.016-0.121 0.039h0.199c0.028 0.028 0.067 0.043 0.121 0.043l0.121 0.04c0.086 0.042 0.18 0.097 0.282 0.16 0.047 0.023 0.101 0.05 0.156 0.078-0.023-0.879-0.199-1.746-0.52-2.598l-0.078-0.32-1.242-0.082h-0.078c0.375 0.242 0.625 0.414 0.758 0.519l0.082 0.043c0.105 0.106 0.199 0.266 0.281 0.481 0.078 0.238 0.133 0.426 0.16 0.558 0.133 0.532 0.106 0.868-0.082 1l-0.039 0.039zm5.801 1.321c0.156 0.027 0.359 0.054 0.598 0.082-0.051-0.403-0.118-0.856-0.2-1.364v-0.718c0-0.293-0.054-0.532-0.16-0.719-0.027-0.055-0.051-0.105-0.082-0.16v-0.039c-0.238-0.403-0.652-0.696-1.238-0.879 0.133 0.078 0.308 0.25 0.519 0.515l0.039 0.043c0.137 0.211 0.227 0.481 0.282 0.797 0.16 0.375 0.226 1.071 0.199 2.082v0.282l0.043 0.078zm-5.402-5.801c0.375 0.082 0.668 0.215 0.882 0.402l0.079 0.039 0.242 0.161 0.437 0.441c0.293 0.344 0.629 0.547 1 0.598 0.16 0.054 0.426 0.082 0.801 0.082-0.266-0.11-0.625-0.348-1.082-0.719-0.477-0.375-0.852-0.617-1.117-0.723-0.348-0.16-0.668-0.281-0.961-0.359-0.055-0.028-0.094-0.039-0.121-0.039h-0.199l-0.36 0.039c0.106 0 0.238 0.027 0.399 0.078z" inkscape:connector-curvature="0"/>
      <path id="path38" style="fill-rule:evenodd;fill:#706556" d="m26.254 19.759c0.641 0.051 1.055 0 1.242-0.16v-0.078c-0.293 0.051-0.707 0.078-1.242 0.078v0.16z" inkscape:connector-curvature="0"/>
    </g>
  </g>
<metadata><rdf:RDF><cc:Work><dc:format>image/svg+xml</dc:format><dc:type rdf:resource="http://purl.org/dc/dcmitype/StillImage"/><cc:license rdf:resource="http://creativecommons.org/licenses/publicdomain/"/><dc:publisher><cc:Agent rdf:about="http://openclipart.org/"><dc:title>Openclipart</dc:title></cc:Agent></dc:publisher></cc:Work><cc:License rdf:about="http://creativecommons.org/licenses/publicdomain/"><cc:permits rdf:resource="http://creativecommons.org/ns#Reproduction"/><cc:permits rdf:resource="http://creativecommons.org/ns#Distribution"/><cc:permits rdf:resource="http://creativecommons.org/ns#DerivativeWorks"/></cc:License></rdf:RDF></metadata></svg>
